<?xml version="1.0" encoding="UTF-8"?>
<svg baseProfile="tiny" version="1.1" viewBox="110 0 890 380.08" xml:space="preserve" xmlns="http://www.w3.org/2000/svg">
<switch>
	<g>
			<g fill="#346FA9" stroke="#3470AA" stroke-miterlimit="10" stroke-width="1.2948">
				<path d="m190.32 216.17c-7.44 1.74-15.88 2.61-25.32 2.61-30.95 0-46.42-9.26-46.42-27.79 0-17.53 15.47-26.3 46.42-26.3 9.44 0 17.88 0.87 25.32 2.61v8.95c-7.44-1.99-15.47-2.98-24.11-2.98-20.7 0-31.05 5.91-31.05 17.72 0 12.81 10.35 19.21 31.05 19.21 8.64 0 16.68-0.99 24.11-2.98v8.95z"/>
				<path d="m214.65 218.33v-53.27h39.19c17.6 0 26.41 4.76 26.41 14.29 0 6.44-6.85 11.78-20.56 16l27.31 23.05h-20.14l-26.22-23.24v-4.51c15.27-1.62 22.91-5.28 22.91-11 0-3.93-3.58-5.89-10.73-5.89h-21.88v44.58h-16.29z"/>
				<path d="m362.81 165.06v8.5h-43.16v13.44h41.11v8.84h-41.3v13.99h44.19v8.58h-59.86v-53.34h59.02z"/>
				<path d="m444.29 165.06v8.5h-40.75v13.44h38.7v8.84h-38.88v22.57h-15.67v-53.34h56.6z"/>
				<path d="m464.1 191.81c0-18.08 14.43-27.12 43.29-27.12 28.41 0 42.62 9.04 42.62 27.12 0 17.98-14.21 26.97-42.62 26.97-27.58 0-42.01-8.99-43.29-26.97zm43.28 18.39c17.36 0 26.04-6.2 26.04-18.61 0-12.21-8.68-18.32-26.04-18.32-17.8 0-26.71 6.1-26.71 18.32 0.01 12.4 8.91 18.61 26.71 18.61z"/>
				<path d="m574.34 218.4v-53.34h15.98l45.52 38.87v-38.87h15.37v53.34h-15.98l-45.52-39.69v39.69h-15.37z"/>
				<path d="m675.53 191.81c0-18.08 14.43-27.12 43.28-27.12 28.41 0 42.62 9.04 42.62 27.12 0 17.98-14.21 26.97-42.62 26.97-27.56 0-41.99-8.99-43.28-26.97zm43.29 18.39c17.36 0 26.04-6.2 26.04-18.61 0-12.21-8.68-18.32-26.04-18.32-17.81 0-26.71 6.1-26.71 18.32 0 12.4 8.9 18.61 26.71 18.61z"/>
			</g>
			<g fill="#346FA9">
				<path d="m137.17 250.91c-1.4 0.46-2.92 0.68-4.55 0.68-5.69 0-8.54-2.83-8.54-8.48 0-5.35 2.85-8.02 8.54-8.02 1.63 0 3.15 0.23 4.55 0.68v1.82c-1.4-0.53-2.85-0.8-4.32-0.8-4.44 0-6.66 2.11-6.66 6.32 0 4.51 2.22 6.77 6.66 6.77 1.48 0 2.92-0.27 4.32-0.8v1.83z"/>
				<path d="m139.84 245.51c0-3.98 1.9-5.97 5.69-5.97s5.69 1.99 5.69 5.97-1.9 5.96-5.69 5.96c-3.77 0-5.67-1.99-5.69-5.96zm5.69 4.27c2.39 0 3.58-1.44 3.58-4.31 0-2.81-1.19-4.22-3.58-4.22s-3.58 1.41-3.58 4.22c0 2.87 1.19 4.31 3.58 4.31z"/>
				<path d="m154.07 251.48v-11.95h1.42l0.38 1.52c1.22-1.02 2.56-1.52 4.03-1.52 2.98 0 4.47 1.48 4.47 4.45v7.5h-2.11v-7.53c0-1.78-0.88-2.66-2.65-2.66-1.21 0-2.35 0.5-3.44 1.51v8.68h-2.1z"/>
				<path d="m167.67 250.91v-1.82c1.4 0.46 2.82 0.68 4.26 0.68 1.9 0 2.86-0.57 2.86-1.71 0-1.06-0.66-1.59-1.99-1.59h-1.71c-2.58 0-3.87-1.18-3.87-3.53 0-2.28 1.66-3.41 4.97-3.41 1.43 0 2.84 0.19 4.24 0.57v1.82c-1.4-0.46-2.82-0.68-4.24-0.68-1.99 0-2.98 0.57-2.98 1.71 0 1.06 0.63 1.59 1.88 1.59h1.71c2.73 0 4.1 1.18 4.1 3.53 0 2.28-1.65 3.41-4.96 3.41-1.45 0-2.87-0.19-4.27-0.57z"/>
				<path d="m184.66 239.53c3.4 0 5.1 1.68 5.1 5.04 0 0.48-0.03 0.99-0.1 1.54h-8.39c0 2.44 1.43 3.66 4.28 3.66 1.36 0 2.56-0.15 3.62-0.46v1.71c-1.05 0.3-2.34 0.46-3.85 0.46-4.1 0-6.16-2.04-6.16-6.11 0-3.89 1.84-5.84 5.5-5.84zm-3.39 4.83h6.46c-0.05-2.09-1.07-3.14-3.07-3.14-2.12 0-3.26 1.05-3.39 3.14z"/>
				<path d="m194.81 235.21v16.27h-2.11v-16.27h2.11z"/>
				<path d="m198.34 251.48v-16.27h2.11v5.62c1.02-0.86 2.26-1.3 3.72-1.3 2.98 0 4.47 1.48 4.47 4.45v7.5h-2.11v-7.53c0-1.78-0.88-2.66-2.65-2.66-1.21 0-2.35 0.5-3.44 1.51v8.68h-2.1z"/>
				<path d="m211.48 245.51c0-3.98 1.9-5.97 5.69-5.97s5.69 1.99 5.69 5.97-1.9 5.96-5.69 5.96c-3.78 0-5.67-1.99-5.69-5.96zm5.69 4.27c2.39 0 3.58-1.44 3.58-4.31 0-2.81-1.19-4.22-3.58-4.22s-3.58 1.41-3.58 4.22c0 2.87 1.19 4.31 3.58 4.31z"/>
				<path d="m231.63 251.48v-16.27h6.94c3.1 0 4.64 1.3 4.64 3.9 0 2.12-1.51 3.68-4.54 4.7l5.59 7.67h-2.78l-5.18-7.32v-1.38c3.11-0.49 4.67-1.69 4.67-3.58 0-1.5-0.86-2.25-2.59-2.25h-4.64v14.53h-2.11z"/>
				<path d="m251.18 239.53c3.4 0 5.1 1.68 5.1 5.04 0 0.48-0.03 0.99-0.1 1.54h-8.39c0 2.44 1.43 3.66 4.28 3.66 1.36 0 2.56-0.15 3.62-0.46v1.71c-1.05 0.3-2.34 0.46-3.85 0.46-4.1 0-6.16-2.04-6.16-6.11 0-3.89 1.83-5.84 5.5-5.84zm-3.39 4.83h6.46c-0.05-2.09-1.07-3.14-3.07-3.14-2.13 0-3.26 1.05-3.39 3.14z"/>
				<path d="m269.2 251.48c0 2.88-1.83 4.32-5.5 4.32-1.47 0-2.78-0.19-3.91-0.57v-1.71c1.16 0.38 2.47 0.57 3.94 0.57 2.25 0 3.37-0.87 3.37-2.62v-0.57c-0.9 0.38-1.86 0.57-2.89 0.57-3.78 0-5.67-2.01-5.67-6.04 0-3.94 1.99-5.91 5.97-5.91 1.62 0 3.18 0.16 4.69 0.49v11.47zm-2.1-9.92c-0.72-0.18-1.61-0.27-2.67-0.27-2.54 0-3.81 1.38-3.81 4.13 0 2.83 1.2 4.24 3.61 4.24 1.09 0 2.05-0.2 2.88-0.61v-7.49z"/>
				<path d="m274.95 235.21v1.99h-2.11v-1.99h2.11zm0 4.32v11.95h-2.11v-11.95h2.11z"/>
				<path d="m278.02 245.51c0-3.98 1.9-5.97 5.69-5.97s5.69 1.99 5.69 5.97-1.9 5.96-5.69 5.96c-3.77 0-5.67-1.99-5.69-5.96zm5.69 4.27c2.39 0 3.58-1.44 3.58-4.31 0-2.81-1.19-4.22-3.58-4.22s-3.58 1.41-3.58 4.22c0 2.87 1.19 4.31 3.58 4.31z"/>
				<path d="m292.25 251.48v-11.95h1.42l0.38 1.52c1.22-1.02 2.56-1.52 4.03-1.52 2.98 0 4.47 1.48 4.47 4.45v7.5h-2.11v-7.53c0-1.78-0.88-2.66-2.65-2.66-1.21 0-2.35 0.5-3.44 1.51v8.68h-2.1z"/>
				<path d="m305.39 247.88c0-2.45 1.62-3.68 4.85-3.68 1.04 0 2.08 0.08 3.12 0.23v-1.13c0-1.37-1.07-2.06-3.22-2.06-1.23 0-2.49 0.19-3.78 0.57v-1.71c1.29-0.38 2.55-0.57 3.78-0.57 3.55 0 5.33 1.24 5.33 3.71v8.24h-1.18l-0.73-1.18c-1.19 0.79-2.49 1.18-3.89 1.18-2.85 0-4.28-1.2-4.28-3.6zm4.85-1.97c-1.83 0-2.74 0.64-2.74 1.93s0.72 1.93 2.16 1.93c1.46 0 2.69-0.39 3.7-1.16v-2.48c-1.04-0.15-2.08-0.22-3.12-0.22z"/>
				<path d="m321.1 235.21v16.27h-2.11v-16.27h2.11z"/>
				<path d="m340.44 250.77c-1.45 0.48-3.24 0.72-5.36 0.72-3.56 0-5.34-2.07-5.34-6.21 0-3.82 1.89-5.74 5.67-5.74 1.03 0 2.01 0.19 2.92 0.57v-4.89h2.11v15.55zm-2.1-8.8c-0.85-0.41-1.82-0.61-2.91-0.61-2.41 0-3.61 1.28-3.61 3.84 0 3.03 1.2 4.54 3.61 4.54 1.09 0 2.06-0.15 2.91-0.44v-7.33z"/>
				<path d="m348.79 239.53c3.4 0 5.1 1.68 5.1 5.04 0 0.48-0.03 0.99-0.1 1.54h-8.39c0 2.44 1.43 3.66 4.28 3.66 1.36 0 2.56-0.15 3.62-0.46v1.71c-1.05 0.3-2.34 0.46-3.85 0.46-4.1 0-6.16-2.04-6.16-6.11 0-3.89 1.83-5.84 5.5-5.84zm-3.39 4.83h6.46c-0.05-2.09-1.07-3.14-3.07-3.14-2.13 0-3.26 1.05-3.39 3.14z"/>
				<path d="m373.28 235.21v1.71h-8.54v5.46h8.14v1.71h-8.14v7.4h-2.11v-16.27h10.65z"/>
				<path d="m374.98 245.51c0-3.98 1.9-5.97 5.69-5.97s5.69 1.99 5.69 5.97-1.9 5.96-5.69 5.96c-3.77 0-5.67-1.99-5.69-5.96zm5.69 4.27c2.39 0 3.58-1.44 3.58-4.31 0-2.81-1.19-4.22-3.58-4.22s-3.58 1.41-3.58 4.22c0 2.87 1.19 4.31 3.58 4.31z"/>
				<path d="m389.21 251.48v-11.95h1.42l0.38 1.52c1.22-1.02 2.56-1.52 4.03-1.52 2.98 0 4.47 1.48 4.47 4.45v7.5h-2.11v-7.53c0-1.78-0.88-2.66-2.65-2.66-1.21 0-2.35 0.5-3.44 1.51v8.68h-2.1z"/>
				<path d="m402.35 245.51c0-3.98 1.9-5.97 5.69-5.97s5.69 1.99 5.69 5.97-1.9 5.96-5.69 5.96c-3.77 0-5.67-1.99-5.69-5.96zm5.69 4.27c2.39 0 3.58-1.44 3.58-4.31 0-2.81-1.19-4.22-3.58-4.22s-3.58 1.41-3.58 4.22c0 2.87 1.19 4.31 3.58 4.31z"/>
				<path d="m416.01 247.88c0-2.45 1.62-3.68 4.85-3.68 1.04 0 2.08 0.08 3.12 0.23v-1.13c0-1.37-1.07-2.06-3.22-2.06-1.23 0-2.49 0.19-3.78 0.57v-1.71c1.29-0.38 2.55-0.57 3.78-0.57 3.55 0 5.33 1.24 5.33 3.71v8.24h-1.18l-0.73-1.18c-1.19 0.79-2.49 1.18-3.89 1.18-2.86 0-4.28-1.2-4.28-3.6zm4.85-1.97c-1.83 0-2.74 0.64-2.74 1.93s0.72 1.93 2.16 1.93c1.46 0 2.69-0.39 3.7-1.16v-2.48c-1.04-0.15-2.08-0.22-3.12-0.22z"/>
				<path d="m439.8 239.53v11.95h-1.45l-0.36-1.52c-1.45 1.02-2.91 1.52-4.37 1.52-2.75 0-4.12-1.48-4.12-4.45v-7.5h2.11v7.53c0 1.78 0.88 2.66 2.64 2.66 1.21 0 2.36-0.5 3.45-1.51v-8.68h2.1z"/>
				<path d="m453.34 250.77c-1.45 0.48-3.24 0.72-5.36 0.72-3.56 0-5.34-2.07-5.34-6.21 0-3.82 1.89-5.74 5.67-5.74 1.03 0 2.01 0.19 2.92 0.57v-4.89h2.11v15.55zm-2.11-8.8c-0.85-0.41-1.82-0.61-2.91-0.61-2.41 0-3.61 1.28-3.61 3.84 0 3.03 1.2 4.54 3.61 4.54 1.09 0 2.06-0.15 2.91-0.44v-7.33z"/>
				<path d="m459.08 235.21v1.99h-2.11v-1.99h2.11zm0 4.32v11.95h-2.11v-11.95h2.11z"/>
				<path d="m462.16 245.51c0-3.98 1.9-5.97 5.69-5.97s5.69 1.99 5.69 5.97-1.9 5.96-5.69 5.96c-3.78 0-5.68-1.99-5.69-5.96zm5.69 4.27c2.39 0 3.58-1.44 3.58-4.31 0-2.81-1.19-4.22-3.58-4.22s-3.58 1.41-3.58 4.22c-0.01 2.87 1.19 4.31 3.58 4.31z"/>
				<path d="m478.6 235.21v16.27h-2.11v-16.27h2.11z"/>
				<path d="m481.56 245.51c0-3.98 1.9-5.97 5.69-5.97s5.69 1.99 5.69 5.97-1.9 5.96-5.69 5.96c-3.78 0-5.67-1.99-5.69-5.96zm5.69 4.27c2.39 0 3.58-1.44 3.58-4.31 0-2.81-1.19-4.22-3.58-4.22s-3.58 1.41-3.58 4.22c0 2.87 1.19 4.31 3.58 4.31z"/>
				<path d="m505.88 251.48c0 2.88-1.83 4.32-5.5 4.32-1.47 0-2.78-0.19-3.92-0.57v-1.71c1.16 0.38 2.47 0.57 3.94 0.57 2.25 0 3.37-0.87 3.37-2.62v-0.57c-0.9 0.38-1.86 0.57-2.89 0.57-3.78 0-5.67-2.01-5.67-6.04 0-3.94 1.99-5.91 5.97-5.91 1.62 0 3.18 0.16 4.69 0.49v11.47zm-2.1-9.92c-0.72-0.18-1.61-0.27-2.68-0.27-2.54 0-3.81 1.38-3.81 4.13 0 2.83 1.2 4.24 3.61 4.24 1.09 0 2.05-0.2 2.88-0.61v-7.49z"/>
				<path d="m511.63 235.21v1.99h-2.11v-1.99h2.11zm0 4.32v11.95h-2.11v-11.95h2.11z"/>
				<path d="m514.7 247.88c0-2.45 1.62-3.68 4.85-3.68 1.04 0 2.08 0.08 3.12 0.23v-1.13c0-1.37-1.07-2.06-3.22-2.06-1.23 0-2.49 0.19-3.78 0.57v-1.71c1.29-0.38 2.55-0.57 3.78-0.57 3.55 0 5.33 1.24 5.33 3.71v8.24h-1.18l-0.73-1.18c-1.19 0.79-2.49 1.18-3.89 1.18-2.86 0-4.28-1.2-4.28-3.6zm4.85-1.97c-1.83 0-2.74 0.64-2.74 1.93s0.72 1.93 2.16 1.93c1.46 0 2.69-0.39 3.7-1.16v-2.48c-1.04-0.15-2.08-0.22-3.12-0.22z"/>
				<path d="M539,244.66v1.71h-5.69v-1.71H539z"/>
				<path d="m546.96 235.78c1.52-0.46 3.03-0.68 4.55-0.68 3.91 0 5.86 1.48 5.86 4.44 0 1.79-0.71 3.02-2.14 3.7 1.43 0.64 2.14 1.88 2.14 3.7 0 3.11-1.95 4.67-5.86 4.67-1.52 0-3.03-0.23-4.55-0.68v-1.82c1.52 0.53 3.03 0.8 4.55 0.8 2.5 0 3.76-0.99 3.76-2.96 0-1.9-0.96-2.85-2.87-2.85h-3.73v-1.71h3.7c1.93 0 2.9-0.95 2.9-2.85 0-1.82-1.25-2.73-3.76-2.73-1.52 0-3.03 0.27-4.55 0.8v-1.83z"/>
				<path d="m560.05 239.32c0-1.22 0.81-1.83 2.42-1.83 0.6 0 1.12 0.04 1.56 0.11v-0.57c0-0.65-0.54-0.98-1.62-0.98-0.61 0-1.24 0.1-1.89 0.3v-0.86c0.65-0.18 1.28-0.27 1.89-0.27 1.78 0 2.66 0.64 2.66 1.91v4.05h-0.52l-0.43-0.41c-0.52 0.27-1.12 0.41-1.82 0.41-1.5-0.01-2.25-0.62-2.25-1.86zm2.42-0.99c-0.92 0-1.38 0.33-1.38 0.98 0 0.68 0.4 1.02 1.21 1.02 0.73 0 1.3-0.16 1.73-0.48v-1.41c-0.41-0.07-0.93-0.11-1.56-0.11z"/>
				<path d="m573.84 251.48v-16.27h6.94c3.1 0 4.64 1.3 4.64 3.9 0 2.12-1.51 3.68-4.54 4.7l5.59 7.67h-2.78l-5.18-7.32v-1.38c3.11-0.49 4.67-1.69 4.67-3.58 0-1.5-0.86-2.25-2.59-2.25h-4.64v14.53h-2.11z"/>
				<path d="m593.4 239.53c3.4 0 5.1 1.68 5.1 5.04 0 0.48-0.03 0.99-0.1 1.54h-8.4c0 2.44 1.43 3.66 4.28 3.66 1.36 0 2.56-0.15 3.62-0.46v1.71c-1.05 0.3-2.34 0.46-3.85 0.46-4.1 0-6.16-2.04-6.16-6.11 0.01-3.89 1.84-5.84 5.51-5.84zm-3.4 4.83h6.46c-0.05-2.09-1.07-3.14-3.07-3.14-2.12 0-3.25 1.05-3.39 3.14z"/>
				<path d="m611.42 251.48c0 2.88-1.83 4.32-5.5 4.32-1.47 0-2.78-0.19-3.91-0.57v-1.71c1.16 0.38 2.47 0.57 3.94 0.57 2.25 0 3.37-0.87 3.37-2.62v-0.57c-0.9 0.38-1.86 0.57-2.89 0.57-3.78 0-5.67-2.01-5.67-6.04 0-3.94 1.99-5.91 5.97-5.91 1.62 0 3.18 0.16 4.69 0.49v11.47zm-2.1-9.92c-0.72-0.18-1.61-0.27-2.67-0.27-2.54 0-3.81 1.38-3.81 4.13 0 2.83 1.2 4.24 3.61 4.24 1.09 0 2.05-0.2 2.88-0.61v-7.49z"/>
				<path d="m617.17 235.21v1.99h-2.11v-1.99h2.11zm0 4.32v11.95h-2.11v-11.95h2.11z"/>
				<path d="m620.24 247.88c0-2.45 1.62-3.68 4.85-3.68 1.04 0 2.08 0.08 3.12 0.23v-1.13c0-1.37-1.07-2.06-3.22-2.06-1.23 0-2.49 0.19-3.78 0.57v-1.71c1.29-0.38 2.55-0.57 3.78-0.57 3.55 0 5.33 1.24 5.33 3.71v8.24h-1.18l-0.73-1.18c-1.19 0.79-2.49 1.18-3.89 1.18-2.86 0-4.28-1.2-4.28-3.6zm4.85-1.97c-1.83 0-2.74 0.64-2.74 1.93s0.72 1.93 2.16 1.93c1.46 0 2.69-0.39 3.7-1.16v-2.48c-1.04-0.15-2.08-0.22-3.12-0.22zm-2.65-10.18c0.46-0.35 0.95-0.52 1.48-0.52 0.39 0 0.81 0.1 1.25 0.3s0.87 0.3 1.3 0.3c0.57 0 1.12-0.17 1.66-0.52v1.71c-0.46 0.35-0.95 0.52-1.48 0.52-0.39 0-0.81-0.1-1.25-0.3s-0.87-0.3-1.3-0.3c-0.57 0-1.12 0.17-1.66 0.52v-1.71z"/>
				<path d="m633.16 245.51c0-3.98 1.9-5.97 5.69-5.97s5.69 1.99 5.69 5.97-1.9 5.96-5.69 5.96c-3.78 0-5.68-1.99-5.69-5.96zm5.69 4.27c2.39 0 3.58-1.44 3.58-4.31 0-2.81-1.19-4.22-3.58-4.22s-3.58 1.41-3.58 4.22c-0.01 2.87 1.19 4.31 3.58 4.31z"/>
			</g>
				<path d="m822.82 161.18-31.82-4.67c2.64-8.31 7.73-14.67 15.25-19.1s18.17-6.64 31.94-6.64c15.81 0 27.24 2.42 34.3 7.25 7.05 4.83 10.58 10.9 10.58 18.22 0 4.29-1.43 8.17-4.3 11.65s-7.19 6.53-12.97 9.14c4.68 0.95 8.26 2.05 10.74 3.32 4.02 2.03 7.15 4.71 9.38 8.03s3.35 7.28 3.35 11.89c0 5.78-1.85 11.32-5.54 16.63s-9.01 9.39-15.95 12.26-16.06 4.3-27.35 4.3c-11.02 0-19.71-1.06-26.07-3.18s-11.6-5.23-15.7-9.31c-4.1-4.09-7.26-9.22-9.46-15.41l33.63-3.66c1.32 5.55 3.37 9.4 6.16 11.55 2.78 2.15 6.32 3.22 10.62 3.22 4.52 0 8.28-1.36 11.28-4.06 3-2.71 4.5-6.32 4.5-10.84 0-4.61-1.45-8.17-4.34-10.7s-6.82-3.79-11.78-3.79c-2.64 0-6.28 0.54-10.91 1.62l1.74-19.71c1.87 0.23 3.33 0.34 4.38 0.34 4.41 0 8.09-1.15 11.03-3.45 2.95-2.3 4.42-5.03 4.42-8.19 0-3.02-1.1-5.44-3.31-7.25-2.2-1.81-5.23-2.71-9.09-2.71-3.97 0-7.19 0.98-9.67 2.95-2.48 1.94-4.16 5.38-5.04 10.3z" fill="#80C342"/>
			<linearGradient id="a" x1="784.56" x2="784.56" y1="273.2" y2="106.89" gradientUnits="userSpaceOnUse">
				<stop stop-color="#3570AA" offset="0"/>
				<stop stop-color="#80C342" offset="1"/>
			</linearGradient>
			<path d="m587.75 118.15s405.26-53.09 406.56 71.22c1.21 116.28-419.51 77.69-419.51 77.69s397.07 9.01 380.68-89.34c-15.54-93.23-367.73-59.57-367.73-59.57z" fill="url(#a)"/>
	</g>
</switch>
</svg>
