<?xml version="1.0" encoding="UTF-8"?>
<svg baseProfile="tiny" version="1.1" viewBox="68 170 700 250" xml:space="preserve" xmlns="http://www.w3.org/2000/svg">
<switch>
	<g>
		<g fill="#fff">
				<path d="m676.15 289.2c-3.49 0-6.32 1.25-8.5 3.76s-3.27 6.41-3.27 11.72c0 5.38 1.09 9.34 3.27 11.88s5.01 3.81 8.5 3.81 6.34-1.27 8.56-3.81 3.32-6.5 3.32-11.88c0-5.3-1.11-9.21-3.32-11.72-2.22-2.5-5.08-3.76-8.56-3.76z"/>
				<path d="m756.55 230.7c-9.75-29.54-37.57-50.85-70.38-50.85-30.46 0-56.63 18.38-68.01 44.66-13.22-12.28-30.94-19.78-50.4-19.78-40.92 0-74.1 33.17-74.1 74.1 0 50.25 48.67 75.57 63.66 82.57 38.65 18.03 19.83 52.3 18.44 54.04 128.32-0.01 200.46-116.72 180.79-184.74zm-96.54 34.74 7.09-12.97c2.11-3.92 5.12-5.89 9.05-5.89 4 0 7.05 1.96 9.16 5.89l6.98 12.97c0.73 1.31 0.89 2.53 0.49 3.65-0.4 1.13-1.11 1.98-2.13 2.56s-2.11 0.78-3.27 0.6-2.14-0.89-2.94-2.13l-8.28-12.53-8.28 12.53c-0.8 1.24-1.78 1.95-2.94 2.13s-2.25-0.02-3.27-0.6-1.73-1.43-2.12-2.56c-0.43-1.12-0.26-2.34 0.46-3.65zm-58.66 58.64c0 5.6-2.54 8.39-7.63 8.39-5.16 0-7.74-2.8-7.74-8.39v-0.65c-1.09 2.83-2.93 5.09-5.5 6.76-2.58 1.67-5.72 2.51-9.43 2.51-4 0-7.52-0.76-10.57-2.29s-5.47-3.6-7.25-6.21c-1.78-2.62-2.67-5.56-2.67-8.83 0-3.85 1.02-6.94 3.05-9.27 2.03-2.32 5.34-3.98 9.92-4.96s10.64-1.47 18.2-1.47h3.92v-1.85c0-3.2-0.73-5.47-2.18-6.81s-3.92-2.02-7.41-2.02c-1.96 0-4.11 0.24-6.43 0.71-2.33 0.47-4.83 1.25-7.52 2.34-2.04 0.87-3.74 0.93-5.12 0.16-1.38-0.76-2.29-1.92-2.73-3.49-0.44-1.56-0.31-3.14 0.38-4.74s2.05-2.76 4.09-3.49c3.42-1.31 6.63-2.23 9.65-2.78 3.01-0.54 5.79-0.82 8.34-0.82 8.28 0 14.46 1.87 18.53 5.61s6.1 9.54 6.1 17.39v24.2zm36.84 8.18c-0.73 0.07-1.56 0.16-2.51 0.27s-1.85 0.16-2.72 0.16c-12.86 0-19.29-7.16-19.29-21.47v-49.16c0-5.59 2.76-8.39 8.28-8.39 5.45 0 8.17 2.8 8.17 8.39v48.51c0 2.98 0.63 5.18 1.91 6.59 1.27 1.42 2.96 2.13 5.07 2.13 0.58 0 1.14-0.04 1.69-0.11 0.54-0.07 1.07-0.11 1.58-0.11 1.16-0.07 1.98 0.29 2.45 1.09s0.71 2.44 0.71 4.91c0.01 4.21-1.78 6.61-5.34 7.19zm62.86-12.7c-2.36 4.18-5.67 7.41-9.92 9.7s-9.25 3.43-14.99 3.43-10.74-1.14-14.99-3.43-7.54-5.52-9.86-9.7c-2.33-4.18-3.49-9.14-3.49-14.88 0-5.67 1.16-10.59 3.49-14.77 2.32-4.18 5.61-7.39 9.86-9.65 4.25-2.25 9.25-3.38 14.99-3.38s10.74 1.13 14.99 3.38 7.56 5.47 9.92 9.65 3.54 9.1 3.54 14.77c0.01 5.74-1.18 10.7-3.54 14.88z"/>
				<path d="m569.96 309.64c-2.33 0.98-3.49 2.67-3.49 5.07 0 2.04 0.71 3.71 2.13 5.01 1.42 1.31 3.47 1.96 6.16 1.96 3.05 0 5.63-1.05 7.74-3.16s3.16-4.83 3.16-8.18v-2.18h-3.82c-5.59 0.01-9.55 0.5-11.88 1.48z"/>
					<path d="m278.29 291.4c-5.54 0-8.31-2.8-8.31-8.41v-38.8c0-5.53 2.69-8.3 8.09-8.3 5.39 0 8.09 2.77 8.09 8.3v0.33c1.6-2.77 3.81-4.94 6.61-6.5 2.8-1.57 6.07-2.35 9.78-2.35 3.79 0 7.01 0.84 9.67 2.51 2.66 1.68 4.68 4.23 6.07 7.65 1.68-3.21 4.1-5.7 7.27-7.49 3.17-1.78 6.68-2.68 10.55-2.68 6.12 0 10.67 1.84 13.66 5.52s4.48 9.34 4.48 16.99v24.81c0 2.7-0.71 4.77-2.13 6.23-1.42 1.45-3.44 2.18-6.07 2.18-5.54 0-8.31-2.8-8.31-8.41v-24.26c0-3.57-0.57-6.17-1.69-7.81-1.13-1.64-3.04-2.46-5.74-2.46-3.13 0-5.57 1.09-7.32 3.28s-2.62 5.28-2.62 9.29v21.96c0 5.61-2.73 8.41-8.2 8.41-2.62 0-4.66-0.73-6.12-2.18-1.46-1.46-2.18-3.54-2.18-6.23v-24.26c0-3.57-0.58-6.17-1.75-7.81s-3.06-2.46-5.68-2.46c-3.13 0-5.57 1.09-7.32 3.28s-2.62 5.28-2.62 9.29v21.96c-0.02 5.62-2.75 8.42-8.21 8.42z"/>
					<path d="m392.01 291.62c-6.34 0-11.79-1.15-16.34-3.44-4.55-2.3-8.05-5.54-10.49-9.73s-3.66-9.13-3.66-14.81c0-5.54 1.18-10.4 3.55-14.59s5.61-7.47 9.73-9.83c4.12-2.37 8.87-3.55 14.26-3.55 7.79 0 13.99 2.46 18.58 7.38s6.88 11.57 6.88 19.95c0 2.77-1.71 4.15-5.14 4.15h-32.13c0.58 4.23 2.13 7.31 4.65 9.23 2.51 1.93 5.99 2.9 10.44 2.9 1.75 0 3.73-0.2 5.96-0.6 2.22-0.4 4.35-1.11 6.39-2.13 2.11-1.02 3.9-1.22 5.36-0.6s2.46 1.66 3 3.11c0.55 1.46 0.55 2.97 0 4.54s-1.77 2.86-3.66 3.88c-2.55 1.38-5.37 2.42-8.47 3.11s-6.06 1.03-8.91 1.03zm-2.29-45.02c-3.5 0-6.32 1.06-8.47 3.17s-3.48 5.06-3.99 8.85h23.6c-0.43-8.01-4.15-12.02-11.14-12.02z"/>
					<path d="m441.16 291.62c-6.85 0-11.9-1.89-15.14-5.68s-4.86-9.47-4.86-17.05v-24.7c0-5.53 2.73-8.3 8.2-8.3 5.54 0 8.31 2.77 8.31 8.3v25.13c0 6.34 2.73 9.51 8.2 9.51 3.13 0 5.7-1.11 7.7-3.33s3.01-5.15 3.01-8.8v-22.51c0-5.53 2.73-8.3 8.2-8.3 5.54 0 8.31 2.77 8.31 8.3v38.8c0 5.61-2.66 8.41-7.98 8.41-2.62 0-4.63-0.73-6.01-2.18-1.38-1.46-2.08-3.5-2.08-6.12-3.58 5.68-8.87 8.52-15.86 8.52z"/>
					<path d="m90.44 406.62c-5.54 0-8.31-2.81-8.31-8.42v-58.47c0-5.53 2.69-8.3 8.09-8.3 5.46 0 8.2 2.77 8.2 8.3v0.33c1.53-2.7 3.79-4.84 6.78-6.45 2.99-1.6 6.34-2.4 10.05-2.4 4.66 0 8.76 1.13 12.29 3.39s6.28 5.46 8.25 9.62c1.97 4.15 2.95 9.11 2.95 14.86 0 5.76-0.98 10.73-2.95 14.92s-4.72 7.43-8.25 9.73c-3.53 2.29-7.63 3.44-12.29 3.44-3.57 0-6.83-0.76-9.78-2.29s-5.23-3.57-6.83-6.12v19.45c0 5.6-2.73 8.41-8.2 8.41zm19.89-31.81c3.5 0 6.34-1.27 8.52-3.82 2.19-2.55 3.28-6.52 3.28-11.91 0-5.32-1.09-9.23-3.28-11.75-2.18-2.52-5.03-3.77-8.52-3.77-3.57 0-6.45 1.25-8.63 3.77-2.19 2.51-3.28 6.43-3.28 11.75 0 5.39 1.09 9.36 3.28 11.91 2.18 2.55 5.06 3.82 8.63 3.82z"/>
					<path d="m154.56 386.94c-5.68 0-8.53-2.8-8.53-8.41v-38.8c0-5.53 2.69-8.3 8.09-8.3 5.39 0 8.09 2.77 8.09 8.3v1.97c2.62-6.48 8.05-9.98 16.28-10.49 1.82-0.15 3.22 0.31 4.21 1.37 0.98 1.06 1.51 2.79 1.58 5.19 0.15 2.26-0.31 4.05-1.37 5.36s-2.82 2.11-5.3 2.4l-2.51 0.22c-8.16 0.8-12.24 4.95-12.24 12.46v20.33c0 5.6-2.77 8.4-8.3 8.4z"/>
					<path d="m199.36 322.47c-3.06 0-5.41-0.71-7.05-2.13s-2.46-3.44-2.46-6.06c0-2.7 0.82-4.75 2.46-6.17s3.99-2.13 7.05-2.13c6.26 0 9.4 2.77 9.4 8.31 0 5.45-3.13 8.18-9.4 8.18zm0 64.37c-2.7 0-4.75-0.78-6.17-2.35s-2.13-3.77-2.13-6.61v-37.38c0-6.05 2.77-9.07 8.31-9.07 2.62 0 4.64 0.78 6.07 2.35 1.42 1.57 2.13 3.81 2.13 6.72v37.37c0 2.84-0.69 5.05-2.08 6.61-1.39 1.57-3.43 2.36-6.13 2.36z"/>
					<path d="m226.1 386.94c-5.54 0-8.31-2.8-8.31-8.41v-38.8c0-5.53 2.69-8.3 8.09-8.3 5.39 0 8.09 2.77 8.09 8.3v0.33c1.6-2.77 3.81-4.94 6.61-6.5 2.8-1.57 6.07-2.35 9.78-2.35 3.79 0 7.01 0.84 9.67 2.51 2.66 1.68 4.68 4.23 6.07 7.65 1.68-3.21 4.1-5.7 7.27-7.49 3.17-1.78 6.68-2.68 10.55-2.68 6.12 0 10.67 1.84 13.66 5.52s4.48 9.34 4.48 16.99v24.81c0 2.7-0.71 4.77-2.13 6.23-1.42 1.45-3.44 2.18-6.07 2.18-5.54 0-8.31-2.8-8.31-8.41v-24.26c0-3.57-0.57-6.17-1.69-7.81-1.13-1.64-3.04-2.46-5.74-2.46-3.13 0-5.57 1.09-7.32 3.28s-2.62 5.28-2.62 9.29v21.96c0 5.61-2.73 8.41-8.2 8.41-2.62 0-4.66-0.73-6.12-2.18-1.46-1.46-2.18-3.54-2.18-6.23v-24.26c0-3.57-0.58-6.17-1.75-7.81s-3.06-2.46-5.68-2.46c-3.13 0-5.57 1.09-7.32 3.28s-2.62 5.28-2.62 9.29v21.96c-0.01 5.62-2.74 8.42-8.21 8.42z"/>
					<path d="m339.83 387.16c-6.34 0-11.79-1.15-16.34-3.44-4.55-2.3-8.05-5.54-10.49-9.73s-3.66-9.13-3.66-14.81c0-5.54 1.18-10.4 3.55-14.59s5.61-7.47 9.73-9.83c4.12-2.37 8.87-3.55 14.26-3.55 7.79 0 13.99 2.46 18.58 7.38s6.88 11.57 6.88 19.95c0 2.77-1.71 4.15-5.14 4.15h-32.13c0.58 4.23 2.13 7.31 4.65 9.23 2.51 1.93 5.99 2.9 10.44 2.9 1.75 0 3.73-0.2 5.96-0.6 2.22-0.4 4.35-1.11 6.39-2.13 2.11-1.02 3.9-1.22 5.36-0.6s2.46 1.66 3 3.11c0.55 1.46 0.55 2.97 0 4.54s-1.77 2.86-3.66 3.88c-2.55 1.38-5.37 2.42-8.47 3.11s-6.06 1.03-8.91 1.03zm-2.29-45.02c-3.5 0-6.32 1.06-8.47 3.17s-3.48 5.06-3.99 8.85h23.6c-0.43-8.01-4.15-12.02-11.14-12.02z"/>
					<path d="m380.27 322.47c-3.06 0-5.41-0.71-7.05-2.13s-2.46-3.44-2.46-6.06c0-2.7 0.82-4.75 2.46-6.17s3.99-2.13 7.05-2.13c6.26 0 9.4 2.77 9.4 8.31 0 5.45-3.14 8.18-9.4 8.18zm0 64.37c-2.7 0-4.75-0.78-6.17-2.35s-2.13-3.77-2.13-6.61v-37.38c0-6.05 2.77-9.07 8.31-9.07 2.62 0 4.64 0.78 6.07 2.35 1.42 1.57 2.13 3.81 2.13 6.72v37.37c0 2.84-0.69 5.05-2.08 6.61-1.4 1.57-3.44 2.36-6.13 2.36z"/>
					<path d="m407.01 386.94c-5.68 0-8.52-2.8-8.52-8.41v-38.8c0-5.53 2.69-8.3 8.09-8.3 5.39 0 8.09 2.77 8.09 8.3v1.97c2.62-6.48 8.05-9.98 16.28-10.49 1.82-0.15 3.22 0.31 4.21 1.37 0.98 1.06 1.51 2.79 1.58 5.19 0.15 2.26-0.31 4.05-1.37 5.36s-2.82 2.11-5.3 2.4l-2.51 0.22c-8.16 0.8-12.24 4.95-12.24 12.46v20.33c-0.01 5.6-2.78 8.4-8.31 8.4z"/>
					<path d="m465.55 387.16c-5.76 0-10.76-1.15-15.03-3.44-4.26-2.3-7.56-5.54-9.89-9.73s-3.5-9.16-3.5-14.92c0-5.68 1.16-10.62 3.5-14.81 2.33-4.19 5.63-7.41 9.89-9.67s9.27-3.39 15.03-3.39c5.75 0 10.76 1.13 15.03 3.39 4.26 2.26 7.58 5.48 9.94 9.67 2.37 4.19 3.55 9.12 3.55 14.81 0 5.76-1.18 10.73-3.55 14.92s-5.68 7.43-9.94 9.73-9.27 3.44-15.03 3.44zm0-12.35c3.5 0 6.36-1.27 8.58-3.82s3.33-6.52 3.33-11.91c0-5.32-1.11-9.23-3.33-11.75s-5.08-3.77-8.58-3.77-6.34 1.25-8.52 3.77c-2.19 2.51-3.28 6.43-3.28 11.75 0 5.39 1.09 9.36 3.28 11.91 2.18 2.55 5.03 3.82 8.52 3.82z"/>
		</g>
	</g>
</switch>
</svg>
