<svg id="Camada_1" data-name="Camada 1" xmlns="http://www.w3.org/2000/svg" viewBox="0 0 784.16 272.62"><defs><style>.cls-1{fill:#fff;}</style></defs><path class="cls-1" d="M687.4,126.55a12.41,12.41,0,0,0-9.83,4.35q-3.8,4.36-3.79,13.56t3.79,13.75a12.32,12.32,0,0,0,9.83,4.42,12.54,12.54,0,0,0,9.91-4.42q3.84-4.41,3.84-13.75t-3.84-13.56A12.63,12.63,0,0,0,687.4,126.55Z"/><path class="cls-1" d="M780.45,58.85A85.78,85.78,0,0,0,620.3,51.68a85.75,85.75,0,0,0-144.07,62.85c0,58.15,56.32,87.46,73.67,95.55,44.72,20.87,22.94,60.53,21.35,62.54C719.73,272.62,803.21,137.56,780.45,58.85ZM668.74,99.05l8.2-15q3.64-6.81,10.46-6.81T698,84l8.07,15a5,5,0,0,1,.57,4.23,5.34,5.34,0,0,1-2.46,3,5.62,5.62,0,0,1-3.78.7,5,5,0,0,1-3.41-2.46L687.4,90l-9.58,14.51a5,5,0,0,1-3.41,2.46,5.61,5.61,0,0,1-3.78-.7,5.34,5.34,0,0,1-2.46-3A5,5,0,0,1,668.74,99.05Zm-67.89,67.87q0,9.71-8.83,9.71t-8.95-9.71v-.76A15.92,15.92,0,0,1,576.7,174a19.7,19.7,0,0,1-10.91,2.9,27,27,0,0,1-12.24-2.65,21.54,21.54,0,0,1-8.39-7.19,17.72,17.72,0,0,1-3.09-10.21q0-6.69,3.53-10.73t11.48-5.74q7.95-1.7,21.07-1.7h4.54v-2.14q0-5.55-2.52-7.89t-8.58-2.33a37.31,37.31,0,0,0-7.44.82,49.86,49.86,0,0,0-8.71,2.71q-3.53,1.51-5.93.19a6.41,6.41,0,0,1-3.15-4,8,8,0,0,1,.44-5.48,7.57,7.57,0,0,1,4.73-4,63.59,63.59,0,0,1,11.17-3.22,54.43,54.43,0,0,1,9.65-.94q14.37,0,21.44,6.49t7.06,20.12Zm42.64,9.46c-.85.08-1.81.19-2.91.31a26.58,26.58,0,0,1-3.15.19q-22.32,0-22.33-24.85V95.14q0-9.7,9.59-9.71t9.46,9.71v56.14c0,3.44.74,6,2.21,7.63a7.48,7.48,0,0,0,5.86,2.46,15.48,15.48,0,0,0,2-.13,14.59,14.59,0,0,1,1.83-.13,2.81,2.81,0,0,1,2.84,1.27c.54.92.82,2.81.82,5.67C649.67,172.93,647.6,175.7,643.49,176.38Zm72.74-14.7a28.4,28.4,0,0,1-11.48,11.23,39.88,39.88,0,0,1-34.69,0,27.86,27.86,0,0,1-11.41-11.23,34.75,34.75,0,0,1-4-17.22,34.5,34.5,0,0,1,4-17.09,27.52,27.52,0,0,1,11.41-11.16,40.43,40.43,0,0,1,34.69,0,28,28,0,0,1,11.48,11.16,34.2,34.2,0,0,1,4.1,17.09A34.44,34.44,0,0,1,716.23,161.68Z"/><path class="cls-1" d="M564.52,150.2a6,6,0,0,0-4,5.87,7.54,7.54,0,0,0,2.46,5.8q2.46,2.26,7.12,2.27a12.18,12.18,0,0,0,9-3.66,12.8,12.8,0,0,0,3.66-9.46V148.5h-4.42Q568.56,148.5,564.52,150.2Z"/><path class="cls-1" d="M227,129.1q-9.62,0-9.61-9.74V74.47q0-9.61,9.36-9.61t9.35,9.61v.38a19.93,19.93,0,0,1,7.66-7.53,22.81,22.81,0,0,1,11.31-2.72,20.53,20.53,0,0,1,11.19,2.91,18,18,0,0,1,7,8.85,20.94,20.94,0,0,1,8.41-8.66,24.52,24.52,0,0,1,12.21-3.1q10.62,0,15.81,6.39t5.18,19.67v28.7c0,3.12-.82,5.53-2.47,7.21s-4,2.53-7,2.53q-9.61,0-9.61-9.74V91.29c0-4.13-.66-7.15-2-9s-3.53-2.85-6.65-2.85a10.27,10.27,0,0,0-8.47,3.79q-3,3.8-3,10.75v25.42q0,9.74-9.49,9.74a9.57,9.57,0,0,1-7.08-2.53c-1.69-1.68-2.53-4.09-2.53-7.21V91.29c0-4.13-.67-7.15-2-9S251,79.4,248,79.4a10.26,10.26,0,0,0-8.47,3.79q-3,3.8-3,10.75v25.42Q236.47,129.1,227,129.1Z"/><path class="cls-1" d="M358.6,129.35q-11,0-18.91-4a28.6,28.6,0,0,1-12.14-11.26A33.45,33.45,0,0,1,323.32,97a33.75,33.75,0,0,1,4.11-16.89,29.85,29.85,0,0,1,11.25-11.38,32.58,32.58,0,0,1,16.5-4.11q13.54,0,21.5,8.54t8,23.08q0,4.8-5.94,4.8H341.53q1,7.33,5.37,10.69T359,115.06a39.58,39.58,0,0,0,6.89-.69,27.21,27.21,0,0,0,7.4-2.47q3.66-1.77,6.2-.7a6.14,6.14,0,0,1,3.47,3.61,7.42,7.42,0,0,1,0,5.25,8.34,8.34,0,0,1-4.23,4.49,37.69,37.69,0,0,1-9.8,3.6A47.36,47.36,0,0,1,358.6,129.35Zm-2.66-52.1a13.37,13.37,0,0,0-9.8,3.67q-3.74,3.66-4.61,10.24h27.31Q368.09,77.26,355.94,77.25Z"/><path class="cls-1" d="M415.47,129.35q-11.88,0-17.51-6.57t-5.63-19.73V74.47q0-9.61,9.48-9.61t9.62,9.61v29.08q0,11,9.48,11a11.49,11.49,0,0,0,8.92-3.86q3.46-3.86,3.47-10.18v-26q0-9.61,9.49-9.61t9.61,9.61v44.89q0,9.74-9.23,9.74-4.56,0-7-2.53a9.87,9.87,0,0,1-2.4-7.08Q427.62,129.36,415.47,129.35Z"/><path class="cls-1" d="M9.61,262.43Q0,262.43,0,252.68V185q0-9.61,9.36-9.61T18.84,185v.38A19.13,19.13,0,0,1,26.69,178a24.12,24.12,0,0,1,11.63-2.79,25.89,25.89,0,0,1,14.23,3.92,26.09,26.09,0,0,1,9.54,11.13,39.83,39.83,0,0,1,3.42,17.2,40.28,40.28,0,0,1-3.42,17.27,26.43,26.43,0,0,1-9.54,11.25,25.6,25.6,0,0,1-14.23,4A24.24,24.24,0,0,1,27,237.26a19.83,19.83,0,0,1-7.9-7.09v22.51Q19.1,262.43,9.61,262.43Zm23-36.81a12.36,12.36,0,0,0,9.86-4.42q3.8-4.42,3.8-13.79t-3.8-13.59a12.44,12.44,0,0,0-9.86-4.36,12.59,12.59,0,0,0-10,4.36q-3.8,4.37-3.8,13.59t3.8,13.79A12.52,12.52,0,0,0,32.63,225.62Z"/><path class="cls-1" d="M83.81,239.66q-9.87,0-9.87-9.74V185q0-9.61,9.36-9.61T92.66,185v2.27q4.56-11.25,18.84-12.14a5.7,5.7,0,0,1,4.87,1.58q1.71,1.84,1.84,6a8.73,8.73,0,0,1-1.58,6.2c-1.23,1.52-3.27,2.44-6.14,2.78l-2.91.25q-14.16,1.4-14.16,14.42v23.52Q93.42,239.66,83.81,239.66Z"/><path class="cls-1" d="M135.66,165.05c-3.55,0-6.26-.82-8.16-2.47a8.77,8.77,0,0,1-2.85-7q0-4.68,2.85-7.14c1.9-1.65,4.61-2.47,8.16-2.47q10.88,0,10.87,9.61T135.66,165.05Zm0,74.48c-3.12,0-5.5-.9-7.15-2.72s-2.47-4.36-2.47-7.65V185.91q0-10.49,9.62-10.49a9,9,0,0,1,7,2.71q2.47,2.73,2.47,7.78v43.25q0,4.93-2.4,7.65C141.14,238.63,138.77,239.53,135.66,239.53Z"/><path class="cls-1" d="M166.6,239.66q-9.61,0-9.61-9.74V185q0-9.61,9.36-9.61t9.36,9.61v.38a19.84,19.84,0,0,1,7.65-7.53,22.85,22.85,0,0,1,11.32-2.72,20.58,20.58,0,0,1,11.19,2.91,18,18,0,0,1,7,8.86,20.85,20.85,0,0,1,8.41-8.67,24.48,24.48,0,0,1,12.2-3.1q10.62,0,15.81,6.39t5.19,19.67v28.7c0,3.12-.83,5.53-2.47,7.21s-4,2.53-7,2.53q-9.62,0-9.61-9.74V201.85c0-4.13-.66-7.15-2-9S229.92,190,226.8,190a10.23,10.23,0,0,0-8.47,3.8c-2,2.52-3,6.11-3,10.74v25.42q0,9.74-9.48,9.74a9.58,9.58,0,0,1-7.09-2.53c-1.68-1.68-2.52-4.09-2.52-7.21V201.85c0-4.13-.68-7.15-2-9S190.63,190,187.6,190a10.26,10.26,0,0,0-8.48,3.8c-2,2.52-3,6.11-3,10.74v25.42Q176.09,239.66,166.6,239.66Z"/><path class="cls-1" d="M298.21,239.91q-11,0-18.9-4a28.58,28.58,0,0,1-12.14-11.25,36.76,36.76,0,0,1-.13-34,29.8,29.8,0,0,1,11.26-11.38,32.58,32.58,0,0,1,16.5-4.11q13.53,0,21.5,8.54t8,23.08c0,3.21-2,4.8-5.95,4.8H281.14q1,7.33,5.38,10.69t12.07,3.35a39.69,39.69,0,0,0,6.9-.69,27.14,27.14,0,0,0,7.39-2.47c2.45-1.18,4.51-1.41,6.2-.7a6.13,6.13,0,0,1,3.48,3.61,7.53,7.53,0,0,1,0,5.25,8.37,8.37,0,0,1-4.24,4.49,37.69,37.69,0,0,1-9.8,3.6A47.29,47.29,0,0,1,298.21,239.91Zm-2.65-52.1a13.36,13.36,0,0,0-9.8,3.67q-3.74,3.66-4.62,10.24h27.32Q307.7,187.82,295.56,187.81Z"/><path class="cls-1" d="M345,165.05c-3.55,0-6.26-.82-8.16-2.47a8.77,8.77,0,0,1-2.85-7q0-4.68,2.85-7.14c1.9-1.65,4.61-2.47,8.16-2.47q10.88,0,10.87,9.61T345,165.05Zm0,74.48c-3.12,0-5.51-.9-7.15-2.72s-2.47-4.36-2.47-7.65V185.91q0-10.49,9.62-10.49a9,9,0,0,1,7,2.71q2.48,2.73,2.47,7.78v43.25q0,4.93-2.4,7.65C350.48,238.63,348.12,239.53,345,239.53Z"/><path class="cls-1" d="M376,239.66q-9.85,0-9.86-9.74V185q0-9.61,9.36-9.61T384.8,185v2.27q4.56-11.25,18.85-12.14a5.71,5.71,0,0,1,4.87,1.58q1.69,1.84,1.83,6a8.68,8.68,0,0,1-1.58,6.2c-1.22,1.52-3.27,2.44-6.13,2.78l-2.91.25q-14.18,1.4-14.17,14.42v23.52Q385.56,239.66,376,239.66Z"/><path class="cls-1" d="M443.7,239.91a36.21,36.21,0,0,1-17.39-4,28,28,0,0,1-11.44-11.25,38.55,38.55,0,0,1,0-34.4,27.63,27.63,0,0,1,11.44-11.2,40.53,40.53,0,0,1,34.78,0,28.09,28.09,0,0,1,11.51,11.2,38,38,0,0,1,0,34.4,28.53,28.53,0,0,1-11.51,11.25A36.21,36.21,0,0,1,443.7,239.91Zm0-14.29a12.58,12.58,0,0,0,9.93-4.42q3.86-4.42,3.85-13.79t-3.85-13.59a12.65,12.65,0,0,0-9.93-4.36,12.42,12.42,0,0,0-9.86,4.36q-3.79,4.37-3.8,13.59t3.8,13.79A12.35,12.35,0,0,0,443.7,225.62Z"/></svg>