<svg id="Camada_1" data-name="Camada 1" xmlns="http://www.w3.org/2000/svg" xmlns:xlink="http://www.w3.org/1999/xlink" viewBox="0 0 1919.55 791.94"><defs><style>.cls-1{fill:none;}.cls-2{clip-path:url(#clip-path);}.cls-3{fill:#e6e6e6;}</style><clipPath id="clip-path"><rect class="cls-1" width="1920" height="801"/></clipPath></defs><g class="cls-2"><path class="cls-3" d="M2149,332.46l0-.09A265.38,265.38,0,0,0,1654.94,307a265.29,265.29,0,0,0-443.15,196.84c0,76.79,31.53,146,93.71,205.75,33.94,32.59,77.11,62,125.3,85.44h11.6l-1.28-.62c-67.45-31.47-224.33-122.78-224.33-290.57,0-143.53,116.76-260.3,260.29-260.3a259.39,259.39,0,0,1,177,69.49l2.59,2.41,1.41-3.25a260.38,260.38,0,0,1,486.12,21.73c32.61,112.84-6.36,261.72-101.72,388.55A654.53,654.53,0,0,1,1920,846.84v6.1a664.5,664.5,0,0,0,126.52-127.49C2142.81,597.36,2182.09,446.78,2149,332.46Z"/></g></svg>