<svg xmlns="http://www.w3.org/2000/svg" xmlns:xlink="http://www.w3.org/1999/xlink" viewBox="0 0 458.94 665.5"><defs><style>.cls-1{fill:none;}.cls-2{isolation:isolate;}.cls-3{clip-path:url(#clip-path);}.cls-4{fill:#e8f2fa;}.cls-18,.cls-5,.cls-6,.cls-9{opacity:0.5;}.cls-6{fill:#a9c2ff;}.cls-7{fill:#ffae73;}.cls-8{fill:#df733e;}.cls-10,.cls-9{fill:#fa8a51;}.cls-11{fill:#dce3ff;}.cls-12{fill:#abbcff;}.cls-13{fill:#899bfa;}.cls-14{fill:#6a75e1;}.cls-15,.cls-18{fill:#fff;}.cls-15{opacity:0.4;}.cls-16{fill:#fc7600;}.cls-17{fill:#ff912b;}.cls-19{fill:#25468f;}.cls-20{fill:#0b3563;}.cls-21{fill:#17346a;}.cls-22{fill:#f99352;}.cls-23{fill:#f6fbff;}.cls-24{fill:#ff7536;}.cls-25{fill:#1e3865;}.cls-26{mix-blend-mode:color;fill:url(#Gradiente_sem_nome_3);}</style><clipPath id="clip-path"><rect class="cls-1" x="-1.03" y="-3.39" width="461" height="672.28"/></clipPath><linearGradient id="Gradiente_sem_nome_3" x1="-98.3" y1="827.16" x2="706.09" y2="-131.47" gradientUnits="userSpaceOnUse"><stop offset="0" stop-color="#5c3179"/><stop offset="1"/></linearGradient></defs><g class="cls-2"><g id="Camada_1" data-name="Camada 1"><g class="cls-3"><path class="cls-4" d="M-266.66,677.8s-107.77-180.19,12.48-292.18C-47,192.65-299.93,203-132.12,34.72c227.38-228,700.81-86.34,763.6,54.78s-60.41,208.19,62.11,269.6S812.9,549.71,743.43,679.58Z"/><g class="cls-5"><path class="cls-6" d="M206.83,179.49s8.91-83.29,50.91-133.44a9.3,9.3,0,0,1,16.39,6.09v.44C273.76,67.43,226.82,130.59,206.83,179.49Z"/><path class="cls-6" d="M202,203.36S243.13,98.89,315.09,52a9.86,9.86,0,0,1,13.41,2.36c2,2.79,2.89,7.17.81,14C323.75,86.79,243.62,149.33,202,203.36Z"/></g><path class="cls-6" d="M174.49,212.78s-3.35,79.56-18.12,78,10.13-88.39,10.13-88.39-62.94-50.53-91.37-54.3c0,0,26.66,84.65,12.73,79.52s-45.77-91.92-45.77-91.92-69.52-30.32-91.18,10-7.82,66.24,2.32,71.43,79.41,20.33,75.53,28.89-53.85,12.07-78-2c0,0,12.24,77.51,50.75,82.67s55.57-15.45,79.31-11.83,39.31,13.86,26.2,17.43-51.6-9.81-74.15,1.82-40.09,18-6.78,33.26,97.13,25.4,115.93,1.41l2.36-3a14.89,14.89,0,0,1-2.36,3c5.58,5.26,11.09,25.46,14.61,40.79.41,2.56,1.17,6.16,2.4,11.08h0c.45,2.2.8,4,1,5.25,5.16,33.71-13.74,85.47-13.74,85.47l7,3.74c29-49.84,10.22-100.7,10.22-100.7-10.71-39.35-2.73-69.63-2.73-69.63s76-22,56.49-80.46C217.34,264.32,199.52,227.1,174.49,212.78Z"/><path class="cls-6" d="M315.16,150.88s-17.09,53.15-7,55.72S322.93,146,322.93,146s53.65-18,73.26-13.56c0,0-38.06,49.21-27.65,49.22s52.39-49.37,52.39-49.37S474,129.2,478.48,161s-10.92,45.47-18.85,46.42-57.16-5.88-56.68.69,32.49,21,51.79,17.56c0,0-26.85,48-53.43,42.08s-32.81-23.64-49.3-27-29.22-.42-21.46,5.11,36.32,6.06,48.33,19.18,22,21.54-3.6,23.52-70-6.85-76.6-27.19l-.82-2.54a10.14,10.14,0,0,0,.82,2.54c-4.95,2.11-13.47,14.06-19.5,23.29-.89,1.59-2.27,3.77-4.27,6.71h0c-.83,1.34-1.49,2.44-2,3.21-11.57,20.92-11.68,59.55-11.68,59.55l-5.52.76c-7-39.83,17.69-68.72,17.69-68.72C290,262.87,292.12,241,292.12,241s-44.65-32.93-17.65-66.62C274.47,174.39,295.22,154.23,315.16,150.88Z"/><path class="cls-7" d="M244.77,591.2C98.62,669,68.22,602.79,68.56,565.68c.23-21.14,11.54-73.64,17-131.54,4-42.73,5-88.47-4.14-126.66l-.63-2.61S54.07,200.14,131,149.34,300.29,122.86,340.91,209,390.92,513.41,244.77,591.2Z"/><path class="cls-8" d="M245.53,317.88a.9.9,0,0,1-1-.13c-14.09-12.63-35.35-20-63.49-22.08a.81.81,0,0,1-.75-.87.83.83,0,0,1,.87-.74c28.71,2.08,50.4,9.72,64.76,22.77a.58.58,0,0,1-.12.92Z"/><path class="cls-8" d="M264.79,376.09a.74.74,0,0,1,.79.84,103.26,103.26,0,0,1-7.51,28.56C246.82,431,231,450.05,209.61,463.82c-1.62,1-3.26,2-4.9,3a1,1,0,0,1-1.08,0,.73.73,0,0,1-.34-.62.75.75,0,0,1,.37-.65c1.7-1,3.4-2,5.07-3.11,21.09-13.6,36.75-32.44,47.87-57.62a101.6,101.6,0,0,0,7.37-28,.86.86,0,0,1,.81-.76Z"/><path class="cls-9" d="M156,188.82s67.14,40,51.83,64.93-75.62,10.81-75.62,10.81-5-6-1.55-16.49c4.09-12.34-.6-19,4.21-28.56C142.28,204.67,156,188.82,156,188.82Z"/><path class="cls-10" d="M151.14,454.68c-10.16,4.71-7.22,19.25-15.81,29s-32.1,6.77-39-6.1c-5.84-11,4.31-16.41,17.49-20.75,1.8-.59,3.65-1.16,5.52-1.72l1.49-.45a17.74,17.74,0,0,0,8.38-4.89,12.68,12.68,0,0,0,1.64-2.25,13.56,13.56,0,0,0,1.47-3.76c.1-.42.17-.86.24-1.29.86-6-1.48-13-5.34-19.26-.29-.47-.59-.94-.89-1.4-.67-1-1.33-2.07-1.94-3.19a44.59,44.59,0,0,1-2.57-5.49,32.28,32.28,0,0,1-2.44-13.33c.47-7.71,4.94-14.51,16.81-16.92a49.37,49.37,0,0,1,20.18.14,60.26,60.26,0,0,1,13.86,4.8c.81.39,1.62.8,2.4,1.22a77.2,77.2,0,0,1,12.05,8c1.35,1.09,2.55,2.14,3.61,3.1.85.79,1.68,1.56,2.48,2.32q1.8,1.69,3.43,3.31C247.41,458.41,170.74,445.58,151.14,454.68Z"/><path class="cls-10" d="M269.2,503.31c55.82-63.21,52.73-180,29.38-241.76s-72.06-86.94-119.88-83S124.76,237,127.83,270.25s27.43,45.84,38.48,65.79,31.75,25.09,31.75,25.09,27.7,10.35,33.13-.66,7.3-25.36-10.59-33.94-79.63-30.16-85-50.22-4-69.21,26.79-86.55,60.74,33.89,88.53,42.63S291.81,252.3,293,275.77s11,36.11,12.86,46.7,3,96.19-23.79,134S240.72,485,228.63,500s2.36,26.49,13.8,23.87S269.2,503.31,269.2,503.31Z"/><path class="cls-8" d="M68.53,566.51a.81.81,0,0,1-.76-.81,60.81,60.81,0,0,1,19.86-45.59,65.7,65.7,0,0,1,19.74-12.74.81.81,0,0,1,.56,1.51,65.54,65.54,0,0,0-19.25,12.46,59.21,59.21,0,0,0-19.3,44.37.8.8,0,0,1-.81.8Z"/><rect class="cls-11" x="131.75" y="532.84" width="217.01" height="145.05" rx="48.08"/><g class="cls-5"><circle class="cls-12" cx="178.3" cy="571.98" r="21.55" transform="translate(-156.6 75.19) rotate(-16.67)"/><path class="cls-13" d="M185.87,551.8l-15.15,40.35a21.55,21.55,0,0,1,15.15-40.35Z"/><path class="cls-12" d="M195,652.38a21.55,21.55,0,1,1-3.06-30.33A21.54,21.54,0,0,1,195,652.38Z"/><path class="cls-13" d="M191.93,622.05l-27.26,33.39a21.55,21.55,0,0,1,27.26-33.39Z"/><path class="cls-12" d="M329.93,579.55a21.55,21.55,0,1,1-12.6-27.75A21.55,21.55,0,0,1,329.93,579.55Z"/><path class="cls-13" d="M317.33,551.8l-15.15,40.35a21.55,21.55,0,0,1,15.15-40.35Z"/><path class="cls-12" d="M326.45,652.37a21.55,21.55,0,0,1-29.36,3.81c-.33-.23-.65-.48-1-.74a21.55,21.55,0,0,1,27.25-33.39c.31.26.62.52.92.8A21.55,21.55,0,0,1,326.45,652.37Z"/><path class="cls-13" d="M324.3,622.85l-27.21,33.33c-.33-.23-.65-.48-1-.74a21.55,21.55,0,0,1,27.25-33.39C323.69,622.31,324,622.57,324.3,622.85Z"/><path class="cls-12" d="M266,562.75a21.55,21.55,0,1,1-28.71-10.25A21.55,21.55,0,0,1,266,562.75Z"/><path class="cls-13" d="M237.24,552.5l18.46,39a21.55,21.55,0,0,1-18.46-39Z"/><path class="cls-12" d="M238.47,658.75a21.55,21.55,0,1,1,28-12A21.54,21.54,0,0,1,238.47,658.75Z"/><path class="cls-13" d="M266.48,646.75l-40-16a21.55,21.55,0,0,1,40,16Z"/></g><path class="cls-14" d="M249.1,662.75a15.09,15.09,0,0,0,15,15h71a15,15,0,0,0,0-30.08h-71A15.09,15.09,0,0,0,249.1,662.75Z"/><path class="cls-13" d="M285.74,662.75a15.09,15.09,0,0,0,15,15h34.4a15,15,0,0,0,0-30.08h-34.4A15.09,15.09,0,0,0,285.74,662.75Z"/><rect class="cls-15" x="260.81" y="651.05" width="72.02" height="4.74" rx="2.22" transform="translate(593.63 1306.84) rotate(-180)"/><path class="cls-16" d="M320.46,623.67a16,16,0,0,0,7.78,21.17l68.36,31.6A15.94,15.94,0,0,0,410,647.5l-68.35-31.61A16,16,0,0,0,320.46,623.67Z"/><path class="cls-17" d="M355.72,640a16,16,0,0,0,7.78,21.17l33.1,15.3A15.94,15.94,0,0,0,410,647.5l-33.1-15.31A16,16,0,0,0,355.72,640Z"/><path class="cls-18" d="M336.87,623.13l65.2,30.15a2.27,2.27,0,0,0,3-1.1l.22-.47a2.27,2.27,0,0,0-1.1-3L339,618.56a2.28,2.28,0,0,0-3,1.11l-.21.46A2.26,2.26,0,0,0,336.87,623.13Z"/><path class="cls-14" d="M484.47,347.93s36.65,39-55.91,59.32c-28.21,6.21-69.43-10.17-69.43-10.17s.29-7.1,4.66-8.89c0,0,50.35-2,54.89-3.3,11.48-3.36,37.55-16.47,45.43-29.67C470.12,345.17,484.47,347.93,484.47,347.93Z"/><path class="cls-19" d="M273.05,344.38l-6.64,4.7-7.55,5.33-68.05,48.07-15.69,11.09-42.76,30.21c.1-.42.17-.86.24-1.29.86-6-1.48-13-5.34-19.26l35-26.35,10.39-7.82,71.68-53.94,7.38-5.55,6.49-4.89Z"/><path class="cls-13" d="M482.86,661.86s-1,16.28-4.16,16.52c-.42,0-16,0-16,0l-19.86-.12s.13-4.78,5.93-5.79,15.53-5.1,19-12.77C471.54,651.66,482.86,661.86,482.86,661.86Z"/><path class="cls-17" d="M450.75,463.76a806.28,806.28,0,0,0,7.92,111.55c8.67,61.48,5.73,87.58,5.73,87.58a59.77,59.77,0,0,0,8.35,2.12,38,38,0,0,0,12.4-1.43s12.4-61.51,8.84-92.28,17-105.59,17-105.59Z"/><path class="cls-13" d="M447.44,465.93c.23,26.42,2,88.25,3.29,89.51,13.76,13.29,74.31-3.64,77.52-18.28s-12.2-187.7-35.71-194.61c-4.88-1.44-28.43,9.69-28.43,9.69s-6.62,8-9.3,21.64c-1,5.06-4.25,41.1-6.14,65.19-.5,6.42-.91,12-1.15,15.9C447.42,456.58,447.4,460.51,447.44,465.93Z"/><path class="cls-7" d="M461.82,332.86s25.07,2.33,26.28-13.3,5.26-25.87-10.69-28-19.53,3.58-21.21,8.7S455.33,331.85,461.82,332.86Z"/><path class="cls-20" d="M456.82,298.63s5.15,16.8,8.53,15.3,7.57-4.21,8.15,1.06,8.71,13,12.84,12.53c8.52-1,14.91-33.07,10.78-37.76C485.2,276.23,440.33,282.53,456.82,298.63Z"/><path class="cls-14" d="M447.44,465.93c47.12-34.07,48.41-80.53,48.41-80.53-22.42,12.64-40.17,27.36-47.07,50.34-.5,6.42-1,15.32-1.26,19.23C447.42,456.58,447.4,460.51,447.44,465.93Z"/><path class="cls-19" d="M463.09,495.51,438.26,514.2a11.67,11.67,0,0,1-16.34-2.31l-9.3-12.36-67.51-89.69-14.53-19.31-15.84-21.06a27.71,27.71,0,0,1-5.23-21,5.59,5.59,0,0,0-4.24-6.33,37,37,0,0,0-28.86,5.32l-7.45,5-7.68,5.15-19.8-26.3,7.15-5.86,65.28-53.59.71-.58L321,266l.19-.15h0L347,300.14l-.13.08-6.85,4.6-13.8,9.26a3.44,3.44,0,0,0,.71,6.09L337,324a47.24,47.24,0,0,1,21.14,15.83L373.31,360,387.65,379,455,468.43,465,481.82A9.78,9.78,0,0,1,463.09,495.51Z"/><polygon class="cls-13" points="268.96 352.47 261.28 357.62 241.48 331.32 248.63 325.45 268.96 352.47"/><polygon class="cls-13" points="347.69 300 339.53 305.13 313.91 271.87 321.43 265.71 347.69 300"/><path class="cls-19" d="M348.93,300.21h0a1.74,1.74,0,0,1-2.43-.34L321,265.94a1.74,1.74,0,0,1,.34-2.43h0a1.73,1.73,0,0,1,2.43.34l25.54,33.93A1.74,1.74,0,0,1,348.93,300.21Z"/><polygon class="cls-17" points="330.58 390.53 373.31 359.95 387.65 379.01 345.12 409.84 330.58 390.53"/><path class="cls-13" d="M353.83,384.27a5.3,5.3,0,1,1,5.3,5.29A5.3,5.3,0,0,1,353.83,384.27Z"/><path class="cls-21" d="M132.6,442.49c.86-6-1.48-13-5.34-19.26l35-26.35,12.84,16.69-42.76,30.21C132.46,443.36,132.53,442.92,132.6,442.49Z"/><path class="cls-7" d="M376.68,438.4a4.52,4.52,0,0,0-.51-.33,27.24,27.24,0,0,1-3.42-4.13c-.89-2.15-2-1.31-1.59.71.09.43.49,1.79.63,2.24-2.59-.21-3.26-4.73-8.13-3.86a1,1,0,0,0-.85,1.11c.25,2.55,1.24,9.86,4.45,11.85,3.91,2.42,6.95,1.19,11.35.83l5.31-.22-1.32-7.2h-2.67A5.46,5.46,0,0,1,376.68,438.4Z"/><path class="cls-13" d="M482.82,359.68s45.9,19-30.31,75.37c-12.19,9-70.94,13.37-70.94,13.37s-2.14-6.77,1.37-9.94c0,0,46.7-18.93,50.52-21.72,9.66-7.05,23.78-39.63,31.76-48.21A27.3,27.3,0,0,1,482.82,359.68Z"/><path class="cls-17" d="M463.09,495.51,438.26,514.2a11.67,11.67,0,0,1-16.34-2.31l-9.3-12.36L455,468.43,465,481.82A9.78,9.78,0,0,1,463.09,495.51Z"/><path class="cls-22" d="M-1.3,448.35c-4.24-9.1-17.34-9.15-21.37,0a10.59,10.59,0,0,0-.86,5.51c1.21,11.17,29,51.31,32.41,54.73,6.24,6.23,40.52,18.6,40.52,18.6l6.67-1.91A51,51,0,0,1,47.38,520c-9.34-7.1-23.14-18.85-25.58-20.4C17.6,496.91,6.74,465.62-1.3,448.35Z"/><path class="cls-19" d="M52.2,501.53h1.48a12.91,12.91,0,0,0,12.91-12.91V483h64.73v5.62a12.91,12.91,0,0,0,12.91,12.91h1.48A22.47,22.47,0,0,1,168.18,524V655.42a22.47,22.47,0,0,1-22.47,22.47H52.2a22.47,22.47,0,0,1-22.47-22.47V524A22.47,22.47,0,0,1,52.2,501.53Z"/><path class="cls-14" d="M135,462V490.7H62.91V462.23a7.81,7.81,0,0,1,7.81-7.81h56.71A7.59,7.59,0,0,1,135,462Z"/><path class="cls-13" d="M135,462V490.7H84V462.23a7.81,7.81,0,0,1,7.8-7.81h35.67A7.59,7.59,0,0,1,135,462Z"/><rect class="cls-13" x="57.72" y="543.12" width="82.48" height="78" rx="21.57" transform="translate(197.91 1164.24) rotate(180)"/><path class="cls-13" d="M159.71,484.68a14.7,14.7,0,0,0,.31,3l13.06,63.18c9-2.07,20.06-4.63,28.7-6.66l-12.91-62.49a14.73,14.73,0,0,0-29.16,3Z"/><path class="cls-23" d="M201.94,545.23l23.75,114.93a14.75,14.75,0,0,1-6.52,15.41l-9.87,2.32a15.39,15.39,0,0,1-12.46-11.77L173.09,551.19Z"/><path class="cls-24" d="M191.66,627.51l7.74,37a12.35,12.35,0,0,0,9.91,9.91l8.21-2a13.32,13.32,0,0,0,5-13.53L214,618.1a19.31,19.31,0,0,0-9,5.82C202,627.6,196.36,628,191.66,627.51Z"/><path class="cls-14" d="M171.34,554l33.75-7a2.83,2.83,0,0,0,2.19-3.33h0a2.83,2.83,0,0,0-3.33-2.2l-33.76,7a2.82,2.82,0,0,0-2.19,3.33h0A2.83,2.83,0,0,0,171.34,554Z"/><path class="cls-25" d="M9,389c.2-.78-17,7.78-17.89,8.75-8.08,9-5.78,20.65-1.16,20.76,3,.07,2.39,5,2.39,5l33-14S21.37,386.31,9,389Z"/><path class="cls-25" d="M13.06,390.76S14.24,377.9-.13,377.9c0,0,4.35,1.18,6.61,3.54,0,0-9.17-5.38-19.14,2.89s-3.78,29-6.81,32.94-14.85,4.72-13.4,17.45S4.61,463.4,2.3,473.93c0,0,14.12-20.76,4-30.24,0,0,4.92,4.64,5.43,10.15,0,0,1.33-10.76-5.52-14.2-6.06-3.05-11-14.19-10.49-16.18S13.06,390.76,13.06,390.76Z"/><path class="cls-7" d="M-19.26,434.74c2.52-.51,8.05-4.93,13-13.56l.67.58,11.15,9.78A35.53,35.53,0,0,1,.8,439.07a34.2,34.2,0,0,1-9.17,8C-7.47,447.79-20.31,434.29-19.26,434.74Z"/><path class="cls-14" d="M-2.75,445.18a83.81,83.81,0,0,1,5.92,10.13c2.22,4.77,8.25,20.08,8.25,20.08s-6.79,10.24-18,11.21c0,0-7.27-8.59-6.3-17.35S-2.75,445.18-2.75,445.18Z"/><path class="cls-22" d="M5.55,431.54A30.46,30.46,0,0,1,.8,439.07a20.4,20.4,0,0,1-6.41-17.31Z"/><path class="cls-7" d="M5.86,436.44S-11,427.07-5,416.68s7.86-18.61,18.86-13.07,10.78,10.7,9.63,14.66S10.39,438.61,5.86,436.44Z"/><path class="cls-25" d="M26.35,412.21c-.77-4.62-3.11-5.06-4.75-4.75-6.22-10.28-16.37-6.27-16.37-6.27a22.92,22.92,0,0,1-13.27,8s1.95,3.64,10,5.89a13.78,13.78,0,0,0,7.94-.64,44.69,44.69,0,0,1-11.42,4.31c10.6,1,20.7-8.73,21.74-9.77.49,1.51,1.35,4.65.84,6.95-.7,3.13-3.48,8.79-1.78,9.52C19.28,425.42,27.51,419.13,26.35,412.21Z"/><path class="cls-7" d="M24.86,558.25s3.25,2.89,5.72,3.5,5.29,7.69,5.73,8.7S34,570,32.83,568.28s-1.89-2.4-2.22-2,.2,5.1,2.07,7.72,3,4.95,1.65,4.8-9.37-2.1-11-7-.44-5-4.23-10S24.86,558.25,24.86,558.25Z"/><path class="cls-7" d="M-18.11,439.64s-19.64,1.94-21.22,14.7,18.84,64.75,21.76,69.46c5.32,8.57,36.65,38,36.65,38l5.78-3.5S2.63,520.62-.81,517.1C-6.21,511.58-11.46,444.06-18.11,439.64Z"/><path class="cls-10" d="M100.9,402.77c.68,19-15.35,31.37-15.35,31.37,4-42.73,5-88.47-4.14-126.66,2,8.24,9.31,34.21,22.67,45.74C120.05,367.09,100.16,383.74,100.9,402.77Z"/><rect class="cls-26" x="-252.09" y="-2.42" width="1111.97" height="700.53"/></g></g></g></svg>