<svg xmlns="http://www.w3.org/2000/svg" xmlns:xlink="http://www.w3.org/1999/xlink" viewBox="0 0 1917 1080"><defs><style>.cls-1{fill:none;}.cls-2{isolation:isolate;}.cls-3{clip-path:url(#clip-path);}.cls-4{opacity:0.25;}.cls-5{fill:url(#linear-gradient);}.cls-6{fill:#fff9de;opacity:0.8;}.cls-7{fill:#c9bc85;}.cls-12,.cls-7{opacity:0.3;}.cls-12,.cls-16,.cls-18,.cls-23,.cls-25,.cls-27,.cls-29,.cls-32,.cls-33,.cls-35,.cls-37,.cls-46,.cls-49,.cls-55,.cls-58,.cls-69,.cls-7,.cls-72,.cls-73,.cls-74,.cls-75,.cls-81,.cls-83,.cls-92,.cls-94{mix-blend-mode:multiply;}.cls-8{fill:#9ad0c2;}.cls-9{fill:#fff;}.cls-10{fill:#797979;}.cls-11{fill:#c1c1c1;}.cls-12{fill:#9eaeaf;}.cls-13,.cls-18{fill:#ccbdb8;}.cls-14,.cls-16{fill:#e5d4cf;}.cls-15,.cls-17{fill:#efdbd4;}.cls-17,.cls-89,.cls-99{opacity:0.5;}.cls-17,.cls-30,.cls-59,.cls-66,.cls-80,.cls-90,.cls-91,.cls-95,.cls-99{mix-blend-mode:screen;}.cls-18,.cls-23,.cls-25,.cls-27,.cls-29,.cls-30,.cls-90,.cls-92,.cls-94{opacity:0.4;}.cls-19{fill:#fffdf3;}.cls-20{fill:#bde5ee;}.cls-21{fill:#edbebe;}.cls-22{fill:#f7e8e4;}.cls-23{fill:#e2dfd5;}.cls-24{fill:url(#linear-gradient-2);}.cls-25{fill:url(#linear-gradient-3);}.cls-26{fill:url(#linear-gradient-4);}.cls-27{fill:url(#linear-gradient-5);}.cls-28{fill:url(#linear-gradient-6);}.cls-29{fill:url(#linear-gradient-7);}.cls-30{fill:url(#linear-gradient-8);}.cls-31{fill:url(#linear-gradient-9);}.cls-32{opacity:0.37;fill:url(#linear-gradient-10);}.cls-33{fill:#e0af42;opacity:0.39;}.cls-34{fill:url(#linear-gradient-11);}.cls-35,.cls-37{fill:#e56b44;}.cls-35{opacity:0.2;}.cls-36{fill:url(#linear-gradient-12);}.cls-37{opacity:0.13;}.cls-38{fill:url(#linear-gradient-13);}.cls-39{fill:#ffd35d;}.cls-40{fill:url(#linear-gradient-14);}.cls-41{fill:url(#linear-gradient-15);}.cls-42{fill:#ff4949;opacity:0.33;}.cls-43{fill:url(#linear-gradient-16);}.cls-44{fill:#545454;}.cls-45{fill:url(#linear-gradient-17);}.cls-46{fill:#f04553;opacity:0.53;}.cls-47{fill:url(#linear-gradient-18);}.cls-48{fill:url(#linear-gradient-19);}.cls-49{fill:#8bb9a3;}.cls-50{fill:url(#linear-gradient-20);}.cls-51{fill:url(#linear-gradient-21);}.cls-52{fill:url(#linear-gradient-22);}.cls-53{fill:url(#linear-gradient-23);}.cls-54{fill:url(#linear-gradient-24);}.cls-55,.cls-58{opacity:0.34;}.cls-55{fill:url(#linear-gradient-25);}.cls-56{opacity:0.57;}.cls-57{fill:#ff9b5a;}.cls-58{fill:url(#linear-gradient-26);}.cls-59{opacity:0.67;fill:url(#linear-gradient-27);}.cls-60{fill:url(#linear-gradient-28);}.cls-61{fill:url(#linear-gradient-29);}.cls-62{fill:#e87322;}.cls-63,.cls-72{fill:#e57f5f;}.cls-63{opacity:0.28;}.cls-64{fill:#be6850;}.cls-65,.cls-83{fill:#204949;}.cls-66,.cls-80,.cls-95{opacity:0.61;}.cls-66{fill:url(#linear-gradient-30);}.cls-67,.cls-73,.cls-74,.cls-81{fill:#94e6ed;}.cls-68{fill:#70cfd1;}.cls-69,.cls-73{opacity:0.41;}.cls-70{fill:#639270;}.cls-71{fill:url(#linear-gradient-31);}.cls-72{opacity:0.18;}.cls-75{opacity:0.72;}.cls-76{fill:url(#linear-gradient-32);}.cls-77{fill:url(#linear-gradient-33);}.cls-78{fill:url(#linear-gradient-34);}.cls-79{opacity:0.55;}.cls-80{fill:url(#linear-gradient-35);}.cls-81{opacity:0.65;}.cls-82{fill:url(#linear-gradient-36);}.cls-83{opacity:0.27;}.cls-84{fill:#69808b;}.cls-85{fill:#809fa9;}.cls-86,.cls-90{fill:#706f77;}.cls-87,.cls-91{fill:#6e8285;opacity:0.6;}.cls-88,.cls-92{fill:#93abad;}.cls-89{fill:#edb374;}.cls-93,.cls-94{fill:#8fb2c5;}.cls-95{fill:url(#linear-gradient-37);}.cls-96{fill:url(#linear-gradient-38);}.cls-97{fill:url(#linear-gradient-39);}.cls-98,.cls-99{fill:#98a2a7;}.cls-100{fill:#849fad;}.cls-101{fill:url(#linear-gradient-40);}.cls-102{mix-blend-mode:color;fill:url(#Gradiente_sem_nome_12);}</style><clipPath id="clip-path"><rect class="cls-1" x="-1.89" y="-4" width="1920" height="1080"/></clipPath><linearGradient id="linear-gradient" x1="907.4" y1="1851.86" x2="967.26" y2="-218.1" gradientUnits="userSpaceOnUse"><stop offset="0" stop-color="#fdf4c9"/><stop offset="0.99" stop-color="#f2dcb9"/></linearGradient><linearGradient id="linear-gradient-2" x1="727.15" y1="1028.24" x2="678.94" y2="1576.19" gradientUnits="userSpaceOnUse"><stop offset="0" stop-color="#6c7280"/><stop offset="0.98" stop-color="#7f8687"/></linearGradient><linearGradient id="linear-gradient-3" x1="704.45" y1="1026.24" x2="698.46" y2="1094.29" xlink:href="#linear-gradient-2"/><linearGradient id="linear-gradient-4" x1="1501.6" y1="1030.81" x2="1454.16" y2="1570.01" xlink:href="#linear-gradient-2"/><linearGradient id="linear-gradient-5" x1="1479.97" y1="1028.91" x2="1472.74" y2="1111.03" xlink:href="#linear-gradient-2"/><linearGradient id="linear-gradient-6" x1="1085.67" y1="1020.93" x2="1081.58" y2="1067.44" xlink:href="#linear-gradient-2"/><linearGradient id="linear-gradient-7" x1="1131.72" y1="1043.2" x2="1495.29" y2="1043.2" xlink:href="#linear-gradient-2"/><linearGradient id="linear-gradient-8" x1="725.51" y1="1000.57" x2="721.81" y2="1042.57" gradientUnits="userSpaceOnUse"><stop offset="0" stop-color="#adebff"/><stop offset="1" stop-color="#7cdfd7"/></linearGradient><linearGradient id="linear-gradient-9" x1="1316.68" y1="535" x2="1292.62" y2="826.59" gradientUnits="userSpaceOnUse"><stop offset="0" stop-color="#ffd35d"/><stop offset="1" stop-color="#f2c451"/></linearGradient><linearGradient id="linear-gradient-10" x1="1312.1" y1="590.56" x2="1292.21" y2="831.68" xlink:href="#linear-gradient-9"/><linearGradient id="linear-gradient-11" x1="1192.61" y1="1066.5" x2="1192.61" y2="743" gradientUnits="userSpaceOnUse"><stop offset="0" stop-color="#f4bb89"/><stop offset="1" stop-color="#f49168"/></linearGradient><linearGradient id="linear-gradient-12" x1="1332.6" y1="773.12" x2="1301.95" y2="745.34" xlink:href="#linear-gradient-11"/><linearGradient id="linear-gradient-13" x1="1326.52" y1="567.41" x2="1256.7" y2="739.65" xlink:href="#linear-gradient-11"/><linearGradient id="linear-gradient-14" x1="1407.49" y1="1074.68" x2="1407.49" y2="676.45" xlink:href="#linear-gradient-11"/><linearGradient id="linear-gradient-15" x1="1357.76" y1="1206.5" x2="1357.76" y2="987.26" xlink:href="#linear-gradient-11"/><linearGradient id="linear-gradient-16" x1="1449.33" y1="968.54" x2="1451.91" y2="1034.14" xlink:href="#linear-gradient-11"/><linearGradient id="linear-gradient-17" x1="1279.04" y1="1024.25" x2="1305.95" y2="652.9" gradientUnits="userSpaceOnUse"><stop offset="0.01" stop-color="#ff1736"/><stop offset="1" stop-color="#de393e"/></linearGradient><linearGradient id="linear-gradient-18" x1="1247.85" y1="1200.13" x2="1247.85" y2="991.84" xlink:href="#linear-gradient-11"/><linearGradient id="linear-gradient-19" x1="1309.14" y1="956.54" x2="1316.01" y2="1025.72" gradientUnits="userSpaceOnUse"><stop offset="0" stop-color="#5bbf92"/><stop offset="1" stop-color="#3eab89"/></linearGradient><linearGradient id="linear-gradient-20" x1="1151.48" y1="976.66" x2="1153.77" y2="1018.2" xlink:href="#linear-gradient-11"/><linearGradient id="linear-gradient-21" x1="1552.54" y1="581.07" x2="1470.29" y2="680.94" xlink:href="#linear-gradient-11"/><linearGradient id="linear-gradient-22" x1="1532.24" y1="504.64" x2="1693.5" y2="1003.68" gradientUnits="userSpaceOnUse"><stop offset="0" stop-color="#d1ffff"/><stop offset="1" stop-color="#baf6f8"/></linearGradient><linearGradient id="linear-gradient-23" x1="1538.3" y1="150.6" x2="1723.79" y2="310.59" gradientUnits="userSpaceOnUse"><stop offset="0" stop-color="#f57d2c"/><stop offset="1" stop-color="#ff6a1f"/></linearGradient><linearGradient id="linear-gradient-24" x1="1666.89" y1="337.67" x2="1726.23" y2="388.85" xlink:href="#linear-gradient-23"/><linearGradient id="linear-gradient-25" x1="1748.22" y1="319.34" x2="1649.1" y2="385.42" xlink:href="#linear-gradient-23"/><linearGradient id="linear-gradient-26" x1="1543.99" y1="185.44" x2="1708.84" y2="327.62" xlink:href="#linear-gradient-23"/><linearGradient id="linear-gradient-27" x1="1512.54" y1="164.65" x2="1612.16" y2="164.65" xlink:href="#linear-gradient-23"/><linearGradient id="linear-gradient-28" x1="1594.7" y1="441.55" x2="1627.19" y2="383.24" xlink:href="#linear-gradient-11"/><linearGradient id="linear-gradient-29" x1="1487.52" y1="293.43" x2="1714.59" y2="293.43" xlink:href="#linear-gradient-11"/><linearGradient id="linear-gradient-30" x1="1535.35" y1="919.59" x2="1559.26" y2="919.59" xlink:href="#linear-gradient-22"/><linearGradient id="linear-gradient-31" x1="1495.48" y1="210.04" x2="1453.56" y2="304.07" gradientTransform="translate(74.58 88.81) rotate(-1.99)" gradientUnits="userSpaceOnUse"><stop offset="0" stop-color="#f4aa8a"/><stop offset="0.34" stop-color="#f48d70"/><stop offset="0.99" stop-color="#f45941"/></linearGradient><linearGradient id="linear-gradient-32" x1="769.04" y1="653.16" x2="808.95" y2="683.54" gradientTransform="matrix(0.97, -0.24, 0.24, 0.97, 496.79, 265.63)" xlink:href="#linear-gradient-11"/><linearGradient id="linear-gradient-33" x1="1451.27" y1="691.92" x2="1501.84" y2="730.41" gradientTransform="translate(-35.41 -25.47) rotate(1.04)" xlink:href="#linear-gradient-11"/><linearGradient id="linear-gradient-34" x1="1459.28" y1="682.02" x2="1506.35" y2="717.85" gradientTransform="translate(-35.41 -25.47) rotate(1.04)" xlink:href="#linear-gradient-11"/><linearGradient id="linear-gradient-35" x1="1586.94" y1="948.65" x2="1640.27" y2="948.65" xlink:href="#linear-gradient-22"/><linearGradient id="linear-gradient-36" x1="1458.26" y1="646.08" x2="1467.59" y2="687.64" xlink:href="#linear-gradient-11"/><linearGradient id="linear-gradient-37" x1="1645.05" y1="900.51" x2="1692.09" y2="900.51" xlink:href="#linear-gradient-22"/><linearGradient id="linear-gradient-38" x1="1680.67" y1="569.36" x2="1502.07" y2="786.23" xlink:href="#linear-gradient-11"/><linearGradient id="linear-gradient-39" x1="1533.31" y1="659.57" x2="1582.59" y2="697.09" gradientTransform="translate(-86.39 -63.05) rotate(2.56)" xlink:href="#linear-gradient-11"/><linearGradient id="linear-gradient-40" x1="1305.31" y1="624.2" x2="1304.81" y2="674.05" gradientTransform="matrix(1, 0, 0, 1, 0, 0)" xlink:href="#linear-gradient-31"/><linearGradient id="Gradiente_sem_nome_12" x1="-114.65" y1="141.46" x2="2015.39" y2="916.73" gradientUnits="userSpaceOnUse"><stop offset="0.28" stop-color="#5c3179"/><stop offset="0.37" stop-color="#60367c"/><stop offset="0.47" stop-color="#6b4485"/><stop offset="0.58" stop-color="#7d5a94"/><stop offset="0.69" stop-color="#967aa9"/><stop offset="0.8" stop-color="#b7a4c4"/><stop offset="0.92" stop-color="#ded5e4"/><stop offset="1" stop-color="#fff"/></linearGradient></defs><g class="cls-2"><g id="Camada_1" data-name="Camada 1"><g class="cls-3"><g class="cls-4"><rect class="cls-5" x="-99" y="-190" width="2071" height="2071"/><rect class="cls-6" x="-99" y="949.06" width="2071" height="542.6"/><path class="cls-7" d="M1071.22,71.14a132.37,132.37,0,1,0,129.41,135.27A132.37,132.37,0,0,0,1071.22,71.14Z"/><path class="cls-8" d="M1189.67,192.52a126.77,126.77,0,1,1-75.18-118.75A126.94,126.94,0,0,1,1189.67,192.52Z"/><path class="cls-9" d="M1170.73,192.1A108,108,0,1,1,1065.2,81.78,107.95,107.95,0,0,1,1170.73,192.1Z"/><path class="cls-10" d="M1062.68,195.08a1.47,1.47,0,0,1-.7-.19l-85.7-47.19a1.54,1.54,0,0,1,1.48-2.69l85.7,47.19a1.53,1.53,0,0,1,.6,2.08A1.55,1.55,0,0,1,1062.68,195.08Z"/><path class="cls-10" d="M1061.9,194.75a2.94,2.94,0,0,1-1.58-.49,2.66,2.66,0,0,1-.72-3.82l58-78.9a3,3,0,0,1,4-.67,2.67,2.67,0,0,1,.71,3.82l-58,78.9A2.88,2.88,0,0,1,1061.9,194.75Z"/><path class="cls-11" d="M1068.93,190.38a6.75,6.75,0,1,1-6.6-6.89A6.74,6.74,0,0,1,1068.93,190.38Z"/><path class="cls-11" d="M1065.29,114.53c-.85,0-2-.72-2-1.58l.47-21.48c0-.85,1.26-1.51,2.11-1.49s2.05.74,2,1.58l-.47,21.49C1067.38,113.89,1066.14,114.55,1065.29,114.53Z"/><path class="cls-11" d="M1061.42,289.47c-.84,0-2.06-.73-2-1.58l.48-21.49c0-.84,1.26-1.5,2.1-1.48s2.06.73,2,1.58l-.48,21.48C1063.51,288.83,1062.27,289.49,1061.42,289.47Z"/><path class="cls-11" d="M1161,193.12l-21.48-.47c-.86,0-1.51-1.26-1.49-2.1s.73-2.06,1.58-2l21.48.47c.85,0,1.52,1.26,1.5,2.11S1161.83,193.14,1161,193.12Z"/><path class="cls-11" d="M986.05,189.25l-21.49-.48c-.85,0-1.51-1.25-1.49-2.1s.74-2,1.59-2l21.48.47c.84,0,1.51,1.25,1.49,2.1S986.9,189.27,986.05,189.25Z"/><path class="cls-12" d="M1189.67,192.52a127,127,0,0,1-173.09,115.4c135.11-58,114.31-176.49,97.91-234.15A127,127,0,0,1,1189.67,192.52Z"/><rect class="cls-13" x="50.3" y="935.26" width="527.47" height="53.13"/><rect class="cls-13" x="50.3" y="1014.95" width="527.47" height="193.53"/><rect class="cls-14" x="27.53" y="935.26" width="22.77" height="622.34"/><rect class="cls-14" x="577.77" y="935.26" width="22.76" height="622.34"/><rect class="cls-15" x="0.97" y="988.39" width="629.93" height="26.56"/><polygon class="cls-16" points="600.54 1014.95 600.54 1054.24 576 1053.34 52.09 1035.27 27.52 1034.42 27.52 1014.95 600.54 1014.95"/><path class="cls-17" d="M289.14,988.39,268.42,1015h-247c7.44-7.59,16.08-15.18,24-26.56Z"/><polygon class="cls-18" points="577.77 935.26 577.77 988.39 294.69 988.39 339.24 935.26 577.77 935.26"/><polygon class="cls-7" points="629.51 -34.59 629.51 681.97 38.57 652.27 600.51 650.32 629.51 -34.59"/><path class="cls-19" d="M629.51-36.5c-.29,3.11-5.38,124.51-11.31,264.43-8.12,193.51-17.69,422.39-17.69,422.39l-282.61,1-279.33.95L13.18,210.07-1.44-44.58S305.23-37,491-35C571.65-34.1,629.51-34.26,629.51-36.5Z"/><path class="cls-20" d="M629.51-36.5c-.29,3.11-5.38,124.51-11.31,264.43l-605-17.86L-1.44-44.58S629.51-29.08,629.51-36.5Z"/><polygon class="cls-19" points="37.2 -5.6 37.2 48.25 575.66 65.2 575.66 2.68 37.2 -5.6"/><polygon class="cls-19" points="86.91 102.09 86.91 143.51 509.39 153.73 509.39 110.38 86.91 102.09"/><path class="cls-21" d="M495.33,416.63s-70-38-49.33-72.92,50-10.64,47.21,11c0,0,8.62-36.82,32.75-22.52C575.73,361.65,495.33,416.63,495.33,416.63Z"/><path class="cls-20" d="M286.7,305.05H248.44V277c0-2.11-.35-5-2.46-5h-87.8c-2.11,0-5,2.93-5,5v28.1H114.93c-6.33,0-11.46,5.89-11.46,12.75V421.44c0,6.87,5.13,12,11.46,12H286.7c6.33,0,11.45-5.14,11.45-12V317.8C298.15,310.94,293,305.05,286.7,305.05ZM161.46,280.2h78.7v24.85h-78.7Zm39.35,134.59a44.54,44.54,0,1,1,44.53-44.54A44.54,44.54,0,0,1,200.81,414.79Z"/><polygon class="cls-20" points="207.02 338.19 190.45 338.19 190.45 363.04 169.74 363.04 169.74 379.61 190.45 379.61 190.45 404.46 207.02 404.46 207.02 379.61 231.87 379.61 231.87 363.04 207.02 363.04 207.02 338.19"/><polygon class="cls-22" points="74.48 487.3 78.62 537 542.52 544.98 542.52 495.58 74.48 487.3"/><polygon class="cls-22" points="396.18 557.02 398.94 576.03 542.52 577.71 542.52 557.71 396.18 557.02"/><polygon class="cls-22" points="86.56 594.3 89.84 614.66 347.85 619.6 347.85 594.99 86.56 594.3"/><path class="cls-23" d="M629.51-36.5c-.29,3.11-5.38,124.51-11.31,264.43-8.12,193.51-17.69,422.39-17.69,422.39l-282.61,1C449.79,462,484.33,148.48,491-35,571.65-34.1,629.51-34.26,629.51-36.5Z"/><path class="cls-24" d="M715.64,1568.91c.06,5.24-4.53,9.51-10.22,9.56h-.09c-5.65,0-10.26-4.2-10.31-9.41l-4.12-481.18-.45-52.37c-.06-5.22,4.54-9.51,10.22-9.55h.09c5.66,0,10.26,4.2,10.31,9.42l.52,60.06Z"/><path class="cls-25" d="M711.59,1095.44l-20.69-7.56-.45-52.37c-.06-5.22,4.54-9.51,10.22-9.55h.09c5.66,0,10.26,4.2,10.31,9.42Z"/><path class="cls-26" d="M1490.48,1562.86c0,5.15-4.54,9.36-10.23,9.4h-.08c-5.66,0-10.26-4.13-10.31-9.26l-4-459.49-.57-65.55c0-5.14,4.54-9.35,10.23-9.39h.08c5.66,0,10.26,4.12,10.32,9.25l.65,74.43Z"/><path class="cls-27" d="M1485.91,1037.82l.65,74.43-20.71-8.74-.57-65.55c0-5.14,4.54-9.35,10.23-9.39h.08C1481.25,1028.57,1485.85,1032.69,1485.91,1037.82Z"/><path class="cls-28" d="M1495.29,1037.53v8c0,4.84-3.62,8.76-8.09,8.76H680.5c-4.46,0-8.08-3.92-8.08-8.76v-8c0-4.84,3.62-8.76,8.08-8.76h806.7a7.86,7.86,0,0,1,6.31,3.28A9.1,9.1,0,0,1,1495.29,1037.53Z"/><path class="cls-29" d="M1495.29,1037.53v8c0,4.84-3.62,8.76-8.09,8.76H1141l-9.24-22.29h361.79A9.1,9.1,0,0,1,1495.29,1037.53Z"/><path class="cls-15" d="M1504.9,1009.55v23.8c0,3.58-3.66,6.48-8.17,6.48H674.12c-4.52,0-8.18-2.9-8.18-6.48v-23.8c0-3.59,3.66-6.5,8.18-6.5h822.61C1501.24,1003.05,1504.9,1006,1504.9,1009.55Z"/><path class="cls-18" d="M1491.8,1003.05l-21.58,36.78H1094.47c-10.1-13.95-20.45-28.39-26.19-36.78Z"/><polygon class="cls-30" points="781.39 1039.83 690.67 1039.83 665.94 1003.05 753.73 1003.05 781.39 1039.83"/><path class="cls-31" d="M1427.52,752.19A100.83,100.83,0,0,1,1407.26,802c-.7.94-1.44,1.89-2.22,2.82a117.28,117.28,0,0,1-25.21,22.91c-.7.5-1.42,1-2.14,1.44-18.46,12-42,20.8-70.72,24.58a151.43,151.43,0,0,1-33.29.84c-.58,0-1.14-.1-1.73-.17a124.45,124.45,0,0,1-20.76-3.82c-.77-.19-1.53-.41-2.27-.63a116.58,116.58,0,0,1-37.56-18.77c-.7-.54-1.39-1.06-2-1.6-12-9.48-20.08-19.88-24.57-27.89-.74-1.33-1.37-2.6-1.92-3.78,0,0,0,0,0,0-6.31-13.75-12.18-47.18-9-91.62h0a391.94,391.94,0,0,1,12.54-73.82c21.49-79.92,57.49-118.15,69.09-106.55,0,0,.5-.3,1.47-.85.58-.33,1.37-.76,2.32-1.26,1.2-.61,2.67-1.34,4.38-2.13.53-.24,1.1-.5,1.68-.74,15.26-6.67,46.19-16,77.62-1.08,1.81.86,3.61,1.79,5.42,2.8,1.54.88,3.1,1.82,4.65,2.84,20.22,13.15,35.72,37.93,47.23,66.68,1,2.43,1.94,4.9,2.84,7.38a399.73,399.73,0,0,1,17.15,62.9c.5,2.54,1,5.05,1.37,7.54.52,2.82,1,5.63,1.43,8.39,2.12,13.34,3.54,26,4.37,37.28.17,2.11.3,4.19.41,6.21C1428.47,734.47,1428.35,745,1427.52,752.19Z"/><path class="cls-32" d="M1427.52,752.19c-5.46,47.47-45.35,91.63-120.55,101.51s-114.72-35.24-124.17-55.86c-6.31-13.75-12.18-47.18-9-91.62h0c32.2,2.5,35.9-63.54,47.26-101,12-39.63,39.7-41.38,48-34.94,31.22,24.27,65,9.25,88.22,8.81s35.66,54.58,43.4,85.2c3.71,14.73,12.61,15.07,22.32,14C1428,710,1429.2,737.77,1427.52,752.19Z"/><path class="cls-33" d="M1423.23,708.81c1.44,4.35,3,8.68,4.52,13-.11-2-.24-4.1-.41-6.21-6.95-19.58-13.69-39.36-17.29-59.81-2.13-12.12-3.34-24.46-5.16-36.68.9,4.9,1.87,9.76,3,14.58,3,12.32,8.31,23.66,13.21,35.32.14.31.26.62.39.92-.4-2.49-.87-5-1.37-7.54-1.17-2.52-2.3-5.1-3.38-7.72-7.34-17.72-10.37-36.49-13.77-55.18-.9-2.48-1.84-5-2.84-7.38.91,4.71,1.7,9.46,2.49,14.22a135.51,135.51,0,0,0-6.72-23.5c-5.37-13.54-16.48-22.19-29.23-27.67.7-14.07-19.85-20.4-30.42-23.08-8.58-2.17-17.36-2.13-26.11-3-6.84-.68-13.64-1.49-20.5-1.86-6.18-.32-13.1,1-19-1.32a.76.76,0,0,0-1,.6c-.88-1.06-1.75-2.15-2.61-3.25,5.59-.24,10.9-1.78,16.36-2.92,7.38-1.51,15.26-1.05,22.77-1,12,.14,23.92-.14,35.76,1.85q3.21.56,6.36,1.38c-1.81-1-3.61-1.94-5.42-2.8-13-2.37-26.69-2-40-2.19-5.61-.05-11.17,0-16.74.54-6.64.6-12.82,3.23-19.54,3.42a.88.88,0,0,0-.64.29c-.24-.32-.5-.65-.74-1-.58.24-1.15.5-1.68.74,4.89,6.69,10,13.13,16.89,18,9.39,6.71,20.83,7.3,32,7.6,23,.63,48.85,3.24,67.79,17.58,9.28,7,14,16.77,17.22,27.71a227.82,227.82,0,0,1,6.75,33.61c-.44-1.75-.89-3.52-1.41-5.25-2.43-8.4-5.89-16.56-11.15-23.57-5.72-7.65-14.3-13.36-22.51-18-19.92-11.23-42.87-16.28-65-20.94-5.29-1.11-10.66-2-15.73-3.9a46.53,46.53,0,0,1-15.12-10,60.44,60.44,0,0,1-14-20.8c-1,.5-1.74.93-2.32,1.26l.75,2.25a4.09,4.09,0,0,0-.89.41.9.9,0,0,0-.21,1.34c-1.57,1.94-6,6.93-6.31,7.24-4.28,4.74-9.26,8.81-13.75,13.35a100.37,100.37,0,0,0-18.37,26.47c-5.12,10.45-8.63,21.64-12.6,32.55-4.6,12.74-9.11,25.51-12.87,38.51-14.09,48.73-12.1,100.45-9.81,150.76.55,1.18,1.18,2.45,1.92,3.78,0-1.26-.07-2.5-.1-3.73-.38-13.67-1.05-27.32-1.27-41-.45-27.69.12-55.21,4.67-82.58s15.06-52.76,24-78.71c3.77-10.91,8.32-21.54,14.66-31.23,6.83-10.41,16.26-18,24.72-26.93,2.07-2.2,3.9-4.62,5.87-6.91,0,0,0,0,0-.05-1.91,10.26-9.7,18.3-16.09,26.12-7.45,9.15-13.06,19.8-18.3,30.32-11.21,22.5-18.38,46.47-22.45,71.24-8.61,52.21-3.47,105.87,6.14,157.57.86,4.61,1.73,9.19,2.72,13.75.66.54,1.35,1.06,2,1.6,0,0,0-.07,0-.1-2.94-12.88-5-26-7.08-39a508,508,0,0,1-6.4-81.12,325.2,325.2,0,0,1,10.25-80.52,229.14,229.14,0,0,1,13.06-35.8c5.15-11.36,11-23,18.44-33.1,7.06-9.63,16.91-18.27,19.3-30.37.49,1.43,1,2.85,1.48,4.28l-.21-.07c-1.08-.12-1.2,1.55-.15,1.72-1,0-1,2.51-1.22,3.56-.45,1.75-1,3.49-1.5,5.21a65.63,65.63,0,0,1-5.93,12.92c-6.2,10.95-14,20.92-20.06,32-10,18.18-15.37,38.34-18.25,58.78a.68.68,0,0,0-.2.51c0,.31,0,.62,0,.91-.29,2.17-.56,4.31-.81,6.46a344.19,344.19,0,0,0,16.85,150c3.37,9.61,7.91,18.31,12.49,27.36,2.39,4.73,4.76,9.47,7,14.25.11.21.26.53.47.93.74.22,1.5.44,2.27.63-.38-.67-.69-1.26-.88-1.65-3.11-6.65-6.46-13.18-9.8-19.71-2.54-5-5.3-10-7.34-15.22a303.76,303.76,0,0,1-11.68-38,351.32,351.32,0,0,1-9.59-78.29,324,324,0,0,1,1.63-38.6,111.46,111.46,0,0,0,4.26,16.92c2.91,9.1,5.4,18.29,8.21,27.4,5.76,18.69,13.24,36.63,20.74,54.68,7.8,18.78,14.92,37.93,19.36,57.81,2.16,9.66,4.39,19.31,5.35,29.17.31,3.07.38,6.18.5,9.28.59.07,1.15.12,1.73.17,0-.5-.08-1-.1-1.4a171.06,171.06,0,0,0-3.32-26.34,355.85,355.85,0,0,0-17.15-57.47c-7.63-19.57-16.32-38.59-23-58.54-3.22-9.66-5.69-19.51-8.76-29.2-3.23-10.21-6.88-20.32-6.79-31.16a218.37,218.37,0,0,1,5.42-26.79,154.3,154.3,0,0,1,11.38-29.41c5-9.83,11.52-18.79,17.47-28.06,4.21-6.56,8-13.24,10.34-20.7.26-.81,1.86-5,2-7.7a67.75,67.75,0,0,0,5.94,12.35c5.51,8.75,14,14.44,23.36,18.48,17,7.39,35.63,9.26,53.49,13.51,17,4,33,11.24,41.73,27.21,5.5,10.1,7.46,22.34,9.18,33.58a242.74,242.74,0,0,1,2.45,39.41c-.4,34.15-8.44,67.08-13.11,100.71-2.15,15.42-4.19,30.79-6.61,46.1.72-.46,1.44-.94,2.14-1.44q1.25-7.42,2.25-14.92c1.84-13.7,3.53-27.43,5.59-41.11,2-13,4.74-25.87,6.86-38.86,4-24.81,5.74-50.07,3.83-75.16a200,200,0,0,0-6.33-37,53.69,53.69,0,0,0-11.91-22.26c-15.21-16.65-40.33-18.87-61.1-23.18-13.63-2.84-27.82-6.52-39.41-14.52-10.67-7.38-15.1-18.67-19.06-30.23,6.48,12,16.5,22,29.64,26.57,4.67,1.63,9.77,2.28,14.62,3.32,5.52,1.14,11,2.36,16.52,3.67a242.92,242.92,0,0,1,31.76,9.71,109.57,109.57,0,0,1,28.7,16.21c7.89,6.34,13.06,14.39,16.76,23.74,7.17,18.2,8.59,38.27,11,57.5a424.13,424.13,0,0,1,1.72,85.27c-1.07,13.85-2.84,27.63-5.06,41.35-.38,2.32-.75,4.66-1.19,7,.78-.93,1.52-1.88,2.22-2.82,2.33-13.41,4.07-26.9,5.32-40.46a430,430,0,0,0-.28-81.34c-.33-3.27-.65-6.56-1-9.85a.58.58,0,0,1,0,.14C1414.5,683.44,1419,696.11,1423.23,708.81Zm-75.88-159.56a197.49,197.49,0,0,0-21.78-3c-8.61-.8-17.27-.53-25.84-1.49-12.81-1.42-21.52-8.37-29-17.09,3.92,1.38,8.08,1.17,12.21,1.08a147.47,147.47,0,0,1,17.68,1c9.83,1,20,1.12,29.7,2.77a77.27,77.27,0,0,1,22.12,7.23c5.72,2.91,12.49,7.67,12.58,14.67A101.35,101.35,0,0,0,1347.35,549.25Z"/><path class="cls-34" d="M1240.81,845.22c-14,37.25-69.78,128.8-84.77,148.62-.6.79-1.13,1.47-1.6,2-12,14.36-9.88-11.76-9.88-11.76,18.48-76.63,64.12-181,65.74-179.84,11.62,8.5,21.55,24.38,26.71,33.68C1239.43,842.3,1240.81,845.22,1240.81,845.22Z"/><path class="cls-35" d="M1240.81,845.22c-14,37.25-69.78,128.8-84.77,148.62a22,22,0,0,1-1.87-4.07c19.47-37,66.44-124.52,75.88-155.93,0,0,3,1.8,7,4.11C1239.43,842.3,1240.81,845.22,1240.81,845.22Z"/><path class="cls-36" d="M1330.32,739.56l-5.3,15.75a9.61,9.61,0,0,1-.34,1.68c-1,3.38-4.38,10.84-16.24,12.49a26.84,26.84,0,0,1-24.39-9.17,14.46,14.46,0,0,1-2-2.86c-1.73-3.44-3.51-16.82-3.51-16.82Z"/><path class="cls-37" d="M1330.32,739.56l-5.3,15.75a9.61,9.61,0,0,1-.34,1.68c-10.9-3.37-23.81-5.44-40.63,3.32a14.46,14.46,0,0,1-2-2.86c-1.73-3.44-3.51-16.82-3.51-16.82Z"/><path class="cls-38" d="M1401,666.09c-8,7.5-19.73,10.88-19.73,10.88,1.72,10.3.57,63-76.78,65.87s-86.79-71.7-86.79-71.7-17,4.5-30-2.87a26.28,26.28,0,0,1-3-1.94c-10.52-8-8.62-24.93-.17-32.57a14.72,14.72,0,0,1,7.61-3.79c14.32-2.28,26.93,21.21,26.93,21.21s4-34.95,11.45-52.71,24.65-33.81,38.4-28.65c0,0,4,10.9,32.07,20.06s39.53-6.31,60.74-.57,18.31,58.8,18.31,58.8c3.86-11.5,13.93-18,21.06-13.24,3,1.94,5.42,5.81,6.71,12C1409.6,655.05,1406,661.38,1401,666.09Z"/><path class="cls-37" d="M1400.65,664.33c-2.29-12.38-1.67-21.45.56-29-7.13-4.71-17.2,1.74-21.06,13.24,0,0,2.88-53.08-18.31-58.81s-32.66,9.74-60.74.58S1269,570.32,1269,570.32c-13.75-5.16-30.94,10.89-38.4,28.65s-11.45,52.71-11.45,52.71-12.61-23.49-26.93-21.21a14.7,14.7,0,0,0-7.61,3.78c1,8.15,2.54,18.83,3.12,34.51,13,7.38,30,2.87,30,2.87s9.45,74.58,86.79,71.71,78.5-55.57,76.78-65.88c0,0,11.72-3.37,19.73-10.88C1400.92,665.84,1400.78,665.08,1400.65,664.33Zm-95.17,65c-44.34,3.73-80.85-24.59-82-71s23.61-79.69,30.36-82.29c.7-.28,10.36-5.77,11.74-2.29,1.33,2.56,2,8.17,7.45,14.11,13,14.07,55.16,10.87,66.64,6.3,21.58-8.59,37.63,3.8,37.63,57.73S1349.81,725.58,1305.48,729.3Z"/><path class="cls-37" d="M1280.62,643.41c1.62-1.83,1.62-20.92-11.42-23.95S1247.64,636.64,1249,640C1251.68,646.74,1271.31,653.94,1280.62,643.41Z"/><path class="cls-39" d="M1240.14,616.29s-1.43-6.31,12.32-12.61,22.92-.58,22.92-.58S1246.16,616.29,1240.14,616.29Z"/><path class="cls-39" d="M1329.93,601.66c2.58-3.15,29.87-2.65,34.66,15.18,0,0-7.13-2.47-18.64-6.57C1335.54,606.57,1329.93,601.66,1329.93,601.66Z"/><path class="cls-40" d="M1449.61,992.46a3.09,3.09,0,0,1-2.28.53c-1.95-.24-3.93-1.9-6-4.76-5.76-7.66-12.43-23.81-21.38-42.54-5.67-11.8-15.7-30.27-24.35-48.29s-15.81-35.66-15.81-45.85c-2.56-4.64-4.2-7.67-8.34-14.83v0c0-4.31-4-10.15-6.27-18.69-6.14-22.86,3.16-66.14,3.16-66.14,9,8.86,30.42,48.21,32.37,52.44A414,414,0,0,1,1432,879.55C1444.49,921.21,1457.32,988,1449.61,992.46Z"/><path class="cls-41" d="M1406.83,1052.39s-13.33,37.09-47.13,69.74c-23.62,22.83-40.53,40.26-46.11,39.39a10.46,10.46,0,0,1-2.07-.49c-4-1.5-4.93-6.51,5.51-29.24,12-26.21,34.71-90.9,40.73-101.21.51-.89,4.47-1.78,10-1.8C1380.45,1028.7,1401.41,1033.17,1406.83,1052.39Z"/><path class="cls-35" d="M1367.73,1028.78c-5.86,9.76-44,99.88-56.21,132.25-4-1.5-4.93-6.51,5.51-29.24,12-26.21,34.71-90.9,40.73-101.21C1358.27,1029.69,1362.23,1028.8,1367.73,1028.78Z"/><path class="cls-35" d="M1442.07,987.9a1.12,1.12,0,0,1-.78.33c-5.76-7.66-12.43-23.81-21.38-42.54-5.67-11.8-15.7-30.27-24.35-48.29s-15.81-35.66-15.81-45.85c-2.56-4.64-4.2-7.67-8.34-14.83v0c0-.25-.06-.46-.06-.71a134.15,134.15,0,0,1,3.94-28.41c4.68,14.91,14.78,49.08,24.63,73.15s26.92,64.45,32.34,77.66S1443.9,986.08,1442.07,987.9Z"/><path class="cls-9" d="M1269.2,685.56s36.66,10.39,70.47,0c0,0-7.6,31.33-35.74,29.79S1269.2,685.56,1269.2,685.56Z"/><path class="cls-42" d="M1352.09,668.46c8.65,9.06,26.64-8.67,16.9-18.49C1362.4,643.32,1345.79,661.86,1352.09,668.46Z"/><path class="cls-43" d="M1473.88,1018.58a2.21,2.21,0,0,1-.74.43c-2.14.83-3.48-3.25-4.24-7,0,.08,0,.17,0,.26.18,2.71,0,5.63-1.07,7.08a2.23,2.23,0,0,1-1.1.82c-2.1.71-3.46-2.58-4.3-6l.06.73v0c.15,3-.21,5.93-2.07,6.57l-.19.05h0c-2.89.62-5.07-6.15-6-9.9.79,3.68,1.89,10.43-.33,11.3a1.67,1.67,0,0,1-.52.08c-3.91,0-11.41-25.65-11.41-25.65-1.23,2.9-11,6-15.1,3.34a2,2,0,0,1-1-1.74c-.12-3.43,6.82-9.38,11.32-12,16.12-9.29,23.38-5.16,30.28,2.19a24,24,0,0,1,3.77,5.57v0C1475.6,1003.39,1477.46,1015.63,1473.88,1018.58Z"/><path class="cls-35" d="M1453.86,1023a1.67,1.67,0,0,1-.52.08c-3.91,0-11.41-25.65-11.41-25.65-1.23,2.9-11,6-15.1,3.34a2,2,0,0,1-1-1.74c7-.77,13.88-1.68,16.22-6.18l.21-.41C1444.42,987.3,1452.41,1013.39,1453.86,1023Z"/><path class="cls-35" d="M1460.44,1021.52l-.19.05h0c-.74-5.9-3.26-17.41-4.7-23.19a23.38,23.38,0,0,1,6.23,12.33c.27,1.55.51,2.94.74,4.2v0C1462.66,1018,1462.3,1020.88,1460.44,1021.52Z"/><path class="cls-35" d="M1467.85,1019.32c-.26-5.78-.46-15.59-4.42-21.78.24.14,4.22,2.57,5.45,14.34a.18.18,0,0,0,0,.1c0,.08,0,.17,0,.26C1469.1,1015,1469,1017.87,1467.85,1019.32Z"/><path class="cls-35" d="M1473.88,1018.58a2.21,2.21,0,0,1-.74.43,91.43,91.43,0,0,0-2-24.18C1475.6,1003.39,1477.46,1015.63,1473.88,1018.58Z"/><path class="cls-9" d="M1280.62,643.41a37.34,37.34,0,0,1-9.55,1.09c-1.75,0-3.74,0-6-.19a49.92,49.92,0,0,1-5.63-.76A37.1,37.1,0,0,1,1249,640c.31-1.26,7.07-12.57,19-11.34S1280.53,642.52,1280.62,643.41Z"/><path class="cls-42" d="M1231.78,651.24c-8.28,8.75,4.6,25.75,14.9,16.14C1255.41,659.22,1238.77,643.84,1231.78,651.24Z"/><path class="cls-44" d="M1249,640c-1.67-.84,5-16.69,20.2-15.07,15,1.61,11.43,18.46,11.43,18.46s-.89-13.54-14.54-13.67C1253.86,629.62,1249,640,1249,640Z"/><path class="cls-35" d="M1394.77,640.29c1.93-3-14.89,16.09-8.88,21.72,6.69,6.25,9.22-5.23,5.45-8.82C1391.34,653.19,1392.77,643.45,1394.77,640.29Z"/><path class="cls-35" d="M1193.55,641.44c4.87.57,12.9,6.88,16.18,16.9,0,0,.67,2.23-4.15,3-7.31,1.19-8.17-6-1.72-8.47Z"/><path class="cls-45" d="M1376.75,844.46c0,.38-.37,3.11-1.08,7.58a3.89,3.89,0,0,0,0,.46c-3.93,26.1-16.73,106.49-17.18,108.9-1.87,10.39-28.25,22.49-54,23.35s-48.58-18.93-48.58-18.93c-5.59-17.18-21-107.36-21-107.36l0-.33-4.06-22.49c-3.85-14.58-20.42-31.35-20.42-31.35s1.83-3.65,4.73-9.16c6.75-12.92,19.51-36.2,29-47.88,9.28-11.43,22.37-6,30.11-.7,3.52,2.4,6,4.8,6.42,5.63C1291,769.7,1313,769.91,1325,755.29a49,49,0,0,1,9.61-9.08c6.75-4.59,14-5.83,21.83-2.64a37.12,37.12,0,0,1,10.23,6.5c10.23,8.78,9.94,70.5,10,89.88C1376.71,841.94,1376.71,843.47,1376.75,844.46Z"/><path class="cls-46" d="M1334.65,746.21c-2.52,11.72-11.22,26.89-30.22,27.57-21.09.77-27.17-16.31-30.35-27.24a27.44,27.44,0,0,1,6.43,5.65c10.49,17.5,32.47,17.73,44.51,3.12A47,47,0,0,1,1334.65,746.21Z"/><path class="cls-46" d="M1240.67,845.4l-5.9,12.73-4-22.48c-3.87-14.61-20.42-31.38-20.42-31.38s1.8-3.61,4.71-9.12c5.46,6,14.64,14.86,20.17,27.08C1241.53,836.22,1240.67,845.4,1240.67,845.4Z"/><path class="cls-47" d="M1291.05,1154.25a14.45,14.45,0,0,1-5.73,2.85c-3.06.74-7,.45-10.81-3.19-8.17-7.74-57.77-74.05-70.09-111.5,0,0,22.94-17,55.3-9a74.13,74.13,0,0,1,8,2.45S1294.06,1121.59,1291.05,1154.25Z"/><path class="cls-35" d="M1291.05,1154.25a14.45,14.45,0,0,1-5.73,2.85c1.28-21.31-16.42-92-25.6-123.67a74.13,74.13,0,0,1,8,2.45S1294.06,1121.59,1291.05,1154.25Z"/><path class="cls-48" d="M1407.52,1052.64c-10.55-22-30.87-22.9-42.06-21.47a46.94,46.94,0,0,0-7.87,1.63c2.17-6.87,7.83-18.2,5.24-17.75-19.57,3.25-100.11,1.49-100.11,1.49l6.45,19.34c-1.78-.55-3.56-1-5.37-1.37-27.86-5.83-57.94,7.9-57.94,7.9-20.76-57.51-9.31-84.3,8.74-95s33.67,3,41.24,6.44c27.93,12.89,63.17,11.18,102.61-4.47s67.12,5,71,29.4S1407.52,1052.64,1407.52,1052.64Z"/><path class="cls-49" d="M1360.7,1031.78c-4.76.6-3.11,1-3.11,1,2.17-6.87,7.83-18.2,5.24-17.75-19.57,3.25-100.11,1.49-100.11,1.49l6.45,19.34c-1.78-.55-3.56-1-5.37-1.37-2.32-9.49-6.77-27.39-11.82-38.59,0,0,22.34,11.6,55.43,12s60.8-6.62,69.07-10C1382.55,995.53,1366.92,1019.26,1360.7,1031.78Z"/><path class="cls-49" d="M1198.7,986.06c3.87,5.57,15.9,3.2,17.61-3.36,0,0,1,11.93-8.5,13.22S1198.7,986.06,1198.7,986.06Z"/><path class="cls-49" d="M1411,982.7s12.53,5.27,16.8,0c0,0-4.76,7-10.78,6.67S1411,982.7,1411,982.7Z"/><path class="cls-50" d="M1175.7,997.08a2.77,2.77,0,0,1-1,1.82c-3.44,3.44-12.17-1.68-14-4.24,0,0,0,.49-.1,1.35v0c-.43,5.39-2.18,24.8-5.39,26.09l-.15,0c-1.9.43-2.71-2.91-3-6.35v-.1a47.25,47.25,0,0,1-.23-4.78c-.12,3.75-.72,11.11-3.68,11.26a.81.81,0,0,1-.31,0c-1.63-.19-2.56-2.15-3.14-4.52a.08.08,0,0,0,0-.07,21.45,21.45,0,0,1-.39-2.15c-.08,3-.54,6-2.09,6.64a1.49,1.49,0,0,1-.82.12c-2.3-.26-3.37-4.1-3.87-7.6a2.82,2.82,0,0,1,0,.41v.07c0,2.77-.22,5.66-1.26,6.84a1.63,1.63,0,0,1-2.19.28c-4.18-2.14-5-14.89-2.36-24.26a23.28,23.28,0,0,1,2.36-5.81c5.15-8.66,15-14.93,30.31-4.41C1170.61,992,1175.87,994.45,1175.7,997.08Z"/><path class="cls-35" d="M1175.7,997.08a2.77,2.77,0,0,1-1,1.82c-3.44,3.44-12.17-1.68-14-4.24,0,0,0,.49-.1,1.35-.58-2.86-.81-5.41-.81-5.41C1162.77,995.76,1171.61,997.22,1175.7,997.08Z"/><path class="cls-35" d="M1155.25,1022.12l-.15,0c-1.9.43-2.71-2.91-3-6.35v-.1c0-1.51-.06-3.26-.21-5.27-.67-8.49,3.3-11.44,3.3-11.44C1154.31,1004.69,1154.93,1016.67,1155.25,1022.12Z"/><path class="cls-35" d="M1148.16,1022.19a.81.81,0,0,1-.31,0c-1.63-.19-2.56-2.15-3.14-4.52a.08.08,0,0,0,0-.07c-.1-2.08-.85-4.68-.74-8,.35-10.65,3.13-12.07,3.13-12.07C1145.81,1005.55,1147.15,1017.93,1148.16,1022.19Z"/><path class="cls-35" d="M1142.23,1022.09a1.49,1.49,0,0,1-.82.12c-2.3-.26-3.37-4.1-3.87-7.6a2.82,2.82,0,0,1,0,.41,5.8,5.8,0,0,1-.07-.74c-.58-8,1.72-12.4,1.72-12.4A42.8,42.8,0,0,0,1142.23,1022.09Z"/><path class="cls-35" d="M1136.3,1021.93a1.63,1.63,0,0,1-2.19.28c-4.18-2.14-5-14.89-2.36-24.26.84.5.49,2.47.16,6C1131.39,1009.67,1133.14,1015.42,1136.3,1021.93Z"/><path class="cls-51" d="M1522.46,570.29V683.36s-22.77,60.12-45.37,71.87c-15.34,8-30.19-10.71-38.16-23.52a117.91,117.91,0,0,1-6-10.8L1461.42,708C1473,674.06,1500,558,1500,558l9.13,5,.79.44Z"/><path class="cls-35" d="M1522.46,581.7V683.36s-22.77,60.12-45.37,71.87c-15.34,8-30.19-10.71-38.16-23.52l8.28-8.69c30.5,24.62,38.45-11.44,45.63-49.86,6.79-36.35,15.39-103,16.32-110.16,0-.41.06-.63.06-.63l.73,1.07Z"/><path class="cls-52" d="M1781.23,1044.49c-6.22,2.27-16.31,4.56-28.37,6.78-6.07,1.12-12.64,2.2-19.45,3.26-36.11,5.58-79.29,10.13-93.14,11.56l-4.52.44a451,451,0,0,0-13.81-72.35c-5.86-21.21-12.2-48.5-16.83-69.23-3.76-16.83-6.4-29.38-6.72-30.88a.61.61,0,0,0,0-.15c8.06,64.22-13.8,176-13.8,176a43,43,0,0,1-6.84,2.23c-12.45,3-31.32,3.82-43.75,4-2,0-3.9,0-5.53,0-4.39,0-7.14-.06-7.14-.06,2.12-14.58,11.56-88.63,14-136.45.2-4.08.36-8,.46-11.62.24-8.74.33-18.49.26-28.81-.21-31.15-1.8-67.61-4.66-97.84-.31-3.34-.65-6.63-1-9.8-1-9.09-2.11-17.41-3.34-24.63-.27-1.51-.52-3-.8-4.6-6.83-40.15-16-98.89-20.2-122.15-4.32-24.16-9.92-41.53-3.88-52.13l9.14-18.37h0l1.19-2.41a27.62,27.62,0,0,0-3.55-3.05h0c-3.8-2.87-9-6.26-9-6.26s1.11-2.72,2.61-7.25c6.35-19.22,18.38-63.29,21.85-69.76,4.32-8.06,18.24-15.4,29.45-20.49a105.81,105.81,0,0,0,10.49-5.75c7.31-4.38,15.86-10.1,23-14.95.36,6,.81,14.52,1.15,24.26.82,22.62,1.08,51.87-1.75,71.4,0,0,26.13-35.25,43.52-70.51,2.83-5.74,5.43-11.47,7.63-17.06,3.48-8.75,6-17.12,7-24.55V413c4.53,3.83,19.13,16.39,36.4,34.32,5.27,5.49,10.83,11.49,16.4,17.89,27.6,31.65,39.67,54.81,42,92.12,1.54,24.91-9,49.07-16.13,62.36-3.57,6.61-6.29,10.54-6.29,10.54-5.75-5.34-13.65-10.3-22.15-14.7v0c-22.49-11.66-49-19.4-50.17-19.73h0c-8,17.51-9.89,112.46,1,139.59q1,2.41,2.18,4.88a147.12,147.12,0,0,0,8.82,15.25c15.8,24.44,43.09,57.86,75.83,120C1775.48,956.31,1781.23,1044.49,1781.23,1044.49Z"/><path class="cls-53" d="M1726.74,236.63c0,1.93,0,3.87,0,5.84,0,1.44-.06,2.9-.13,4.36a138.67,138.67,0,0,1-7,38.74c-.21.65-.43,1.29-.67,1.93-.55,1.58-1.16,3.16-1.8,4.72a29.07,29.07,0,0,1,2.45,12c0,.66,0,1.35-.1,2.05a23.41,23.41,0,0,1-6.06,13.72c-.39.42-.81.86-1.24,1.27a26.37,26.37,0,0,1-2.59,2.26,22.87,22.87,0,0,0,2.23-2.55,16.13,16.13,0,0,0,1-1.47,13.1,13.1,0,0,0,1.63-9,50,50,0,0,0-2.42-9.21,30.16,30.16,0,0,0-1.28-3c-3.31-6.95-8.12-10.73-13.74-10.66a12.92,12.92,0,0,0-2.2.22c-3.84.69-8,3.1-12.28,7.42,0,0-11.64-20.77-20.27-58.49s-8.19-55.53-8.19-55.53c-12.94-4.24-59.52,6.78-99.19,30.94-15.84,9.65-27.08,17.2-34.85,22.77s-12.09,9.23-14.13,11c-3.5,2.78-8.09,8.16-8.68,10.14-.22.75.52-3.15,2-9.76.48-2.18,1-4.65,1.63-7.35.25-1,.47-2,.73-3.1.43-1.86.9-3.81,1.38-5.83.17-.66.33-1.34.5-2,1.6-6.52,3.45-13.65,5.47-20.72.31-1.12.64-2.24,1-3.34l.89-3c.58-2,1.2-3.91,1.86-5.77,8.22-23.6,21.23-39.14,37.23-46,10.07-4.29,35-11.87,62.39-15.11,14.34-1.71,29.36-2.22,43.24-.47,2.88.37,5.69.83,8.45,1.4,2.07.43,4.1.91,6.1,1.46,16.68,4.6,26.83,10.11,33,15.08q1.11.89,2.07,1.77c7.31,6.69,7.49,12,7.49,12A210.77,210.77,0,0,1,1726.74,236.63Z"/><path class="cls-54" d="M1729.47,381a101,101,0,0,1-39.4,13.9c-1.6.21-3.17.38-4.74.51l-.92.07a80.34,80.34,0,0,1-12.11,0c-.74,0-1.47-.12-2.17-.18s-1.24-.16-1.85-.24l-1.86-.29c-5.73-1-10.65-2.78-14.28-5.32-11.56-8.08-13.84-12.93-14.27-14.74a103.33,103.33,0,0,0,15.78-15.12c.47-.54.94-1.11,1.37-1.66a86.22,86.22,0,0,0,11.48-18.64,136.35,136.35,0,0,0,15.39-3l1.76-.45c9.18-2.44,19.79-6.38,25.9-12.33h0a13.46,13.46,0,0,1,4.16-.94,23,23,0,0,1,2.64,0,25.4,25.4,0,0,1,8.09,2,38.35,38.35,0,0,1,8.76,5.27C1747.29,340.83,1755.65,364.57,1729.47,381Z"/><path class="cls-55" d="M1724.45,324.54c-.4,16.11-5.18,53-39.12,70.82-13.7,1.15-25.95-.87-33.19-5.93-11.56-8.08-13.84-12.93-14.27-14.74,11.74-9.16,22-20.75,28.63-35.42,0,0,30.71-3.76,43-15.77h0C1710,323.3,1715.63,320.82,1724.45,324.54Z"/><g class="cls-56"><path class="cls-57" d="M1713.27,211.55c-8.21-19-11.3-40.31-22.94-57.79a90.17,90.17,0,0,1,14.7-.4q-1-.88-2.07-1.77c-2.75-.09-5.47,0-8.2.12-2.6-5.43-9.25-7.92-14.58-10-5.48-2.12-10.88-4.48-16.33-6.69-2.76-.57-5.57-1-8.45-1.4,6.62,2.42,12.92,5.53,19.56,8,5.91,2.19,14.59,4.36,17.92,10.24-3.39.26-6.78.66-10.19,1.21a.06.06,0,0,0,0,0c-16.15-14.85-41.06-10.75-60.66-7.56-12,1.95-24,3.68-35.79,6.92-11.94,3.29-22.62,8.73-33,15.33-16.17,10.3-29.85,23-43.43,36.21-.32,1.1-.65,2.22-1,3.34,13.84-13.54,27.58-26.52,43.92-37.23a122.8,122.8,0,0,1,30.94-15.15,150.71,150.71,0,0,1,15.3-3.83c-17,19-38.6,33-58.11,49.24-11,9.13-21.47,18.7-33.91,25.87a38.12,38.12,0,0,1-3.61,1.82c-.17.68-.33,1.36-.5,2,.78-.33,1.55-.64,2.31-1,12.49-5.78,23.22-15.8,33.54-24.62,20.75-17.74,44.33-32.51,62.39-53.12a.87.87,0,0,0,.22-.66c5-1,9.93-1.75,14.9-2.53,11.93-1.87,23.89-4.27,36-4,9.57.22,20.78,3,28.26,9.36-1.27.2-2.55.44-3.82.67a.86.86,0,0,0-.86.16c-4,.71-8,1.47-12,2.32a1,1,0,0,0-.41.1q-8.16,1.74-16.18,3.82c-22.55,5.86-43.82,14.59-64.92,24.28-20.58,9.44-41.66,19-59.48,33-7.3,5.73-14.7,11.59-21.41,18-.26,1.07-.48,2.1-.73,3.1,6.51-6.49,13.81-12.17,20.94-18,17.48-14.23,38.12-23.83,58.52-33.31,20.94-9.71,42-18.49,64.32-24.63,6-1.67,12.09-3.08,18.18-4.36-3.64,14.18-3,29.13-1.23,43.52a250,250,0,0,0,10.34,47c4.6,14.12,12.34,27.89,22.92,38.57.37.37.73.75,1.11,1.1A110.11,110.11,0,0,0,1712,301.24c2.5,1.66,5,3.32,7.49,5,0-.7.08-1.39.1-2.05-2.93-2-5.92-4-8.87-6-3.63-2.47-7.21-5-10.57-7.81-1.09-.91-2.14-1.85-3.17-2.85-10.68-10.11-18.2-23.79-23-37.4-5-14.14-8-29.34-10.22-44.12-2.29-15.65-3.3-32.3.87-47.75q5.43-1.12,10.9-2.17c-.76,15.29-2.55,30.57-.74,45.88,1.74,14.89,7.33,29.47,14.17,42.76,7.94,15.5,18.33,29.66,30,42.76.24-.64.46-1.28.67-1.93a217.56,217.56,0,0,1-27.79-39.1,134.4,134.4,0,0,1-14.89-41.68c-2.76-16.21-.45-32.77.35-49a.78.78,0,0,0,.22,0c3.64-.69,7.31-1.29,11-1.73,11.94,17.55,15.06,39.13,23.3,58.33,4.77,11.1,10,22,14.4,33.28.15.41.32.82.46,1.24.07-1.46.12-2.92.13-4.36C1722.59,232,1717.74,221.84,1713.27,211.55Z"/><path class="cls-57" d="M1668.28,395l-1.86-.29a21.55,21.55,0,0,0,5.67-13.75c.23-6.38-1.22-13.82-7-17.61a25.1,25.1,0,0,0-11.43-3.82c.47-.54.94-1.11,1.37-1.66,5.57.65,10.64,2.59,14.1,6.81C1676.29,373.45,1675.14,386.64,1668.28,395Z"/><path class="cls-57" d="M1688.26,361.08c-1.85,11.9-7.25,25.43-16,34.38-.74,0-1.47-.12-2.17-.18,9.1-8.62,14.73-22.39,16.4-34.3,1-6.91-.74-16.44-4.64-24.7l1.76-.45C1687.64,344.19,1689.38,353.77,1688.26,361.08Z"/><path class="cls-57" d="M1719.19,370.32c-7,10.78-17.33,19.11-29.12,24.53-1.6.21-3.17.38-4.74.51l-.92.07c12.62-4.72,23.94-12.62,31.5-23.32,7.19-10.17,12.2-23.94,7.32-36.08a36.31,36.31,0,0,0-9.51-13.48,23,23,0,0,1,2.64,0,33.26,33.26,0,0,1,8,11.66C1729.2,346.29,1726.16,359.58,1719.19,370.32Z"/></g><path class="cls-58" d="M1709.56,323.49c3.66-3.58,5.71-7.89,4.82-13-3.88-22.47-17.26-30.1-31.92-15.27,0,0-11.64-20.77-20.27-58.49s-8.19-55.53-8.19-55.53c-12.94-4.24-59.52,6.78-99.19,30.94-15.84,9.65-27.08,17.2-34.85,22.77s-12.09,9.23-14.13,11c-3.5,2.78-8.09,8.16-8.68,10.14-.22.75.52-3.15,2-9.76,9.4-16.42,24-40.15,54.82-55,38-18.23,100.06-25.43,107.39-15.69,0,0,23.34,77.84,65.41,61,.28,17.8-2.12,37.09-9.64,55.59C1717.1,292.22,1726.13,310.68,1709.56,323.49Z"/><path class="cls-59" d="M1612.16,134.12c-24.84,6.71-56.27,15.57-71.88,27-10.12,7.39-20.7,22.84-27.74,34.08,8.22-23.6,21.23-39.14,37.23-46C1559.84,144.94,1584.78,137.36,1612.16,134.12Z"/><path class="cls-60" d="M1645.05,368.64l-1.3,37.23-.19,5.85,0,1.44a140.61,140.61,0,0,1-10.37,12.38c-1.69,1.83-3.53,3.68-5.45,5.43-8.63,7.92-25.31,11-25.31,11-.6-1.55-2.12-5.14-4-9.58-.76-1.78-1.58-3.7-2.45-5.66-1.51-3.52-3.14-7.23-4.64-10.72-3.63-8.36-6.74-15.43-6.74-15.43C1612.1,387.48,1645.05,368.64,1645.05,368.64Z"/><path class="cls-35" d="M1645.05,368.64l-1.3,37.23-.19,5.85,0,1.44a140.61,140.61,0,0,1-10.37,12.38c-12.61-6.87-29.93-9.53-41.87-9.51-3.63-8.36-6.74-15.43-6.74-15.43C1612.1,387.48,1645.05,368.64,1645.05,368.64Z"/><path class="cls-61" d="M1666.5,339.27c-6.62,14.67-16.89,26.26-28.63,35.42-28,21.86-64.62,29.76-81.34,31.56-19.38,2.08-27-5.46-36.61-25.18-2.15-4.41-4.43-9.43-7-15.09-13.8-31-25.43-75.86-25.45-82.24,0-3.28,14.67-13.57,14.67-13.57-.88-3.62-.69-8.09-.14-12.11a74.88,74.88,0,0,1,2.29-10.77s.46-.46,1.49-1.38c4.05-3.61,17.31-14.53,49-33.81,39.67-24.16,86.25-35.18,99.19-30.94,0,0-.43,17.8,8.19,55.53s20.27,58.49,20.27,58.49c14.66-14.83,28-7.2,31.92,15.27S1666.5,339.27,1666.5,339.27Z"/><path class="cls-35" d="M1705.8,291.21c-6.11-5.74-14.49-5-23.34,4,0,0-11.64-20.77-20.27-58.49s-8.19-55.53-8.19-55.53c-12.94-4.24-59.52,6.78-99.19,30.94-31.67,19.28-44.93,30.2-49,33.81-1,.92-1.49,1.38-1.49,1.38a74.88,74.88,0,0,0-2.29,10.77c23.21-29.1,112.73-61.22,143-67.87,0,0-2.27,60.18,12.4,96.06s-20.56,78-61.1,96.68c-26.07,12-44.56,17.81-76.43-1.86,9.65,19.72,17.23,27.26,36.61,25.18,16.72-1.8,53.3-9.7,81.34-31.56,11.74-9.16,22-20.75,28.63-35.42a135.79,135.79,0,0,0,26.71-6.47C1694.35,318.16,1698.15,304,1705.8,291.21Z"/><path class="cls-62" d="M1603.25,232.87c-.58-3.39,13.27-9.84,25.63-3.91s14.23,21.86,12.58,19.22C1637.46,241.77,1603.25,232.87,1603.25,232.87Z"/><path class="cls-63" d="M1509,276.13s.79-27.47,18.11-28.74c20.67-1.52,20.67,28.74,20.67,28.74a31.52,31.52,0,0,1-20.38,7.11C1514.56,283.24,1509,276.13,1509,276.13Z"/><path class="cls-35" d="M1693.25,302.68c.52-4.64-15.39,4.34-20.28,16.21a5.87,5.87,0,0,0,7.77,0c4-3.39,1.72-6,1.72-6S1693,305.22,1693.25,302.68Z"/><path class="cls-42" d="M1652.49,303.61c4.78,7.75-15.61,19.25-21.53,9.1C1624.65,301.88,1647.29,295.2,1652.49,303.61Z"/><path class="cls-63" d="M1586.86,280.62s9.41-30.35,27.92-24.32,13.47,34,13.47,34-9.93,7.21-25,3.1S1586.86,280.62,1586.86,280.62Z"/><path class="cls-42" d="M1495,287.13c-4.87,3.29,1.46,22.61,10.07,15C1511.1,296.75,1501.7,282.6,1495,287.13Z"/><path class="cls-9" d="M1628.25,290.32a79.31,79.31,0,0,1-18.74,1.07c-6.9-.53-11.82-2.17-15.27-4-5.71-3.08-7.38-6.73-7.38-6.73,1.28-2.51,12.71-9.7,24.2-6C1624.53,279.08,1628.25,290.32,1628.25,290.32Z"/><path class="cls-64" d="M1612,266.85c-19.11-4.38-25.16,13.77-25.16,13.77,1.28-2.5,12.71-9.7,24.2-5.95a27.15,27.15,0,0,1,17.19,15.66S1631.12,271.23,1612,266.85Z"/><path class="cls-65" d="M1742.41,1152.71a465.67,465.67,0,0,1-45,15.28,544.78,544.78,0,0,1-70.25,15.54c-64.41,9.59-104.66-3.68-104.66-3.68l10.28-92.65,1.23-11v0c15-.22,39.47-1.34,50.59-6.24,0,0,21.86-111.78,13.8-176,0,0,12.65,60.7,23.58,100.26a451,451,0,0,1,13.81,72.35s72.19-7,117.11-15.26C1753.24,1079,1742.41,1152.71,1742.41,1152.71Z"/><path class="cls-66" d="M1559.26,901.75l-1.4,7.14-6.07,31s-10-.3-16.44-.24c.2-4.08.36-8,.46-11.62.19-7,.29-14.64.28-22.72,0-2,0-4,0-6.09Z"/><path class="cls-67" d="M1559.26,901.75l-1.4,7.14-21.77-3.55c0-2,0-4,0-6.09Z"/><path class="cls-65" d="M1586.86,535.46s52.52-70.86,58.17-112.12V413c-.94-.8-1.47-1.23-1.47-1.23h0l-.06,1.44a136.61,136.61,0,0,1-15.81,17.8c-8.63,7.92-25.3,11-25.3,11-.61-1.55-2.12-5.14-4-9.58-2.76,1.84-6.59,4.46-10.9,7.38C1588.65,459.69,1590.88,507.5,1586.86,535.46Z"/><path class="cls-9" d="M1509.29,272.55a24.92,24.92,0,0,0-.34,3.58A10,10,0,0,1,1509.29,272.55Z"/><path class="cls-9" d="M1547.73,276.13a36.5,36.5,0,0,1-30.18,3.9,33.87,33.87,0,0,1-8.6-3.9s6-13,19.79-12.14C1544.42,265,1547.73,276.13,1547.73,276.13Z"/><path class="cls-68" d="M1660,759.93c-20.76,12.58-73.38,35-128.62,41.48-.31-3.34-.65-6.63-1-9.8,22.77-6.05,88.43-25.2,117.86-51.41C1650.6,745,1656.49,754.46,1660,759.93Z"/><path class="cls-64" d="M1528.34,256.33c-14.31-.7-18.06,10.32-19,16.22a24.22,24.22,0,0,0-.35,3.58s6-13,19.8-12.14c15.68,1,19,12.14,19,12.14S1547.81,257.29,1528.34,256.33Z"/><g class="cls-69"><path class="cls-67" d="M1781.23,1044.49c-6.22,2.27-16.31,4.56-28.37,6.78-6.07,1.12-12.64,2.2-19.45,3.26,1.91-6,4.2-13.41,7-22.49,13.8-45.2-13.8-150.9-48.87-193.29s-58.65-75.16-58.65-75.16c-16.77,20.68-93.16,50.86-93.16,50.86,2.88,17,.57,124.33-1.72,174.08-1.81,39.34-6.51,74.42-9.55,87.66-4.39,0-7.14-.06-7.14-.06,2.32-15.83,13.23-101.73,14.51-148.07S1534,807.11,1527.07,767c-.27-1.51-.52-3-.8-4.6,35.21-28.77,81.87-102.61,81.87-102.61-8.62-2.09-15-12-15-12,9.19-.58,18.4,1.69,38-39.72,11.3-23.93,22.57-46.58,30.06-61.44-7.33,18.68-14.46,44.66-16.12,49.17h0c-8,17.51-9.89,112.46,1,139.59s44.27,59.34,86.83,140.18S1781.23,1044.49,1781.23,1044.49Z"/><path class="cls-67" d="M1598.36,893.92c8.06,64.22-13.8,176-13.8,176a43,43,0,0,1-6.84,2.23c6.86-27.66,23.7-158.22,17.76-192.71,0,0,5.47,20.52,9.63,45.51C1601.09,907,1598.36,893.92,1598.36,893.92Z"/></g><path class="cls-67" d="M1516.13,558l-3.59,9.32C1510.39,564.78,1500,558,1500,558l2.61-7.25Z"/><path class="cls-70" d="M1534.46,275.09a9,9,0,0,1-2.7,6.43,37.31,37.31,0,0,1-14.21-1.49,8.93,8.93,0,0,1-1.49-4.94,9.2,9.2,0,0,1,18.4,0Z"/><path class="cls-70" d="M1612.7,284.42a9.18,9.18,0,0,1-3.19,7c-6.9-.53-11.82-2.17-15.27-4a9.14,9.14,0,0,1-.48-2.93,9.47,9.47,0,0,1,18.94,0Z"/><path class="cls-62" d="M1558.68,225.31c-4.31-3.95-9-10.09-21.59-8.26-16.29,2.36-21,16.95-21,16.95a173.62,173.62,0,0,1,21-5.93A117.14,117.14,0,0,1,1558.68,225.31Z"/><path class="cls-71" d="M1563.89,300.57a24.79,24.79,0,0,1-1.22,7c-3.41,10-13,13.12-18.57,10.82-3.58-1.49-5.24-4-4.28-7.58.86-3.15,3.73-7.1,9.06-11.91,11.43-10.3,13.72-34.81,13.72-34.81S1564.5,285,1563.89,300.57Z"/><path class="cls-72" d="M1562.67,307.53c-3.41,10-13,13.12-18.57,10.82-3.58-1.49-5.24-4-4.28-7.58,1,2.47,3.56,5.06,8.49,4.78A20.27,20.27,0,0,0,1562.67,307.53Z"/><path class="cls-73" d="M1723.69,619.65c-3.57,6.61-6.29,10.54-6.29,10.54-5.75-5.34-13.65-10.3-22.15-14.7v0c39.69-81.65-33.79-148.61-57.24-167.58,3.48-8.75,6-17.12,7-24.55V413c4.53,3.83,19.13,16.39,36.4,34.32,5.27,5.49,10.83,11.49,16.4,17.89,27.6,31.65,39.67,54.81,42,92.12C1741.36,582.2,1730.83,606.36,1723.69,619.65Z"/><path class="cls-67" d="M1598.14,431.88c-.16.1-.74,19-2.94,43.56-1.67,18.62-4.27,40.51-8.31,60h0v0a216.2,216.2,0,0,1-5.76,22.43s-.12-.28-.38-.77c-2.45-5-16.64-33.69-26.06-45,0,0,26.44-21.48,24.71-22s-25.44-29.54-25.44-29.54l7.61-4.91,34-22.07Z"/><path class="cls-74" d="M1598.14,431.88c-.31.2-2.49,80.92-17,126,0,0-.12-.28-.38-.77,2.12-12,7.92-47.15,9.58-66.78,1.75-20.69,2.86-44.16,5.27-56.8Z"/><path class="cls-67" d="M1586.87,535.42h0a0,0,0,0,1,0,0Z"/><path class="cls-67" d="M1688.07,454.3l-1.09.53-34.27,16.73-10.35,5.05s6.39,18.58,9.14,31.16c.39,1.77.7,3.41.91,4.87,0,0-40.68,7.09-64.91,22.42a4.4,4.4,0,0,1-.61.36h0s0,0,0,0,.23-.32.44-.61.78-1.1,1.36-2c5.31-7.74,20.94-31,33.28-54.77,1.41-2.74,2.79-5.46,4.1-8.2,17.42-36.16,17.53-60.18,17.53-60.18,1.48,1.39,31.38,28.17,44.35,44.55Z"/><g class="cls-75"><path class="cls-67" d="M1652.41,512.64s-40.68,7.09-64.91,22.42l-.14-.31-.23-.49c.54-.51,1.06-1,1.59-1.47C1618.82,505.27,1650,513.1,1652.41,512.64Z"/><path class="cls-67" d="M1651.5,507.77c-3.54-9.91-14-31.58-14-31.58,21.84-17.38,48.44-22.89,50.6-21.89l-45.71,22.31S1648.75,495.19,1651.5,507.77Z"/></g><path class="cls-67" d="M1723.69,619.65c-3.57,6.61-6.29,10.54-6.29,10.54-21-19.47-70.77-34-72.32-34.45h0s1.62-9.62,2.47-9.89S1697.4,593.66,1723.69,619.65Z"/><path class="cls-76" d="M1445.72,736.76a2.15,2.15,0,0,1-.73,1.53c-6.89,6.43-38.13-10.63-38.6-15.1a3.12,3.12,0,0,1,.76-2.74c2.68-2.63,11.71.45,19.59,3.16C1435.21,726.52,1445.79,732.81,1445.72,736.76Z"/><path class="cls-35" d="M1445.72,736.76a2.15,2.15,0,0,1-.73,1.53c-6.89,6.43-38.13-10.63-38.6-15.1a3.12,3.12,0,0,1,.76-2.74C1414.73,726,1436.91,737.71,1445.72,736.76Z"/><path class="cls-77" d="M1459.67,738.92l-.19.16c-6,4.74-56.76-29.75-50.55-37.47a7.61,7.61,0,0,1,2.09-1.83c6.47-3.82,17.63,3.23,26.62,9.44C1447.64,716.11,1468.84,731.31,1459.67,738.92Z"/><path class="cls-35" d="M1459.67,738.92l-.19.16c-6,4.74-56.76-29.75-50.55-37.47a7.61,7.61,0,0,1,2.09-1.83C1420,709.27,1446.09,734.29,1459.67,738.92Z"/><path class="cls-78" d="M1465.63,726.48a4.75,4.75,0,0,1-.83,1c-6.84,6.48-56.69-32.46-47.69-41.53.1-.09.2-.19.3-.27,5.8-5.23,15.15,3.14,27,13.28C1456,708.78,1470.17,719.86,1465.63,726.48Z"/><path class="cls-35" d="M1465.63,726.48a4.75,4.75,0,0,1-.83,1c-6.84,6.48-56.69-32.46-47.69-41.53.1-.09.2-.19.3-.27C1424.12,693.33,1452.64,718.58,1465.63,726.48Z"/><g class="cls-79"><path class="cls-74" d="M1595.58,433.52l2.56-1.64c-.16.1-.74,19-2.94,43.56-2.18-.59-4.29-1.26-6.29-2a70,70,0,0,1-26.83-17.3l-.53-.57Z"/><path class="cls-74" d="M1688,454.19v0c-.33.23-.67.43-1,.62a175.43,175.43,0,0,1-34.27,16.73,114.82,114.82,0,0,1-29.09,6.36l-1.62.1c1.41-2.74,2.79-5.46,4.1-8.2,17.42-36.16,17.53-60.18,17.53-60.18C1645.11,411,1675,437.81,1688,454.19Z"/></g><path class="cls-80" d="M1640.27,1066.09l-4.52.44a451,451,0,0,0-13.81-72.35c-5.86-21.21-12.2-48.5-16.83-69.23-3.76-16.83-6.4-29.38-6.72-30.88a.8.8,0,0,1,0-.15c-4.31-25.11-10.66-59-11.42-63.14,3.45,15.85,8.06,37.68,18.17,72.4,10.19,35.05,19.7,80.83,27.18,109.65A245.53,245.53,0,0,1,1640.27,1066.09Z"/><path class="cls-81" d="M1512.54,567.32a27.62,27.62,0,0,0-3.55-3.05h0c4.08-9.44,15.49-35,15.49-35C1525,538.92,1514.25,562.88,1512.54,567.32Z"/><path class="cls-46" d="M1376.71,840c-.45,6.33-.87,10.73-1,12.09a3.89,3.89,0,0,0,0,.46c-4.28-50-18.55-101-19.17-108.93a37.12,37.12,0,0,1,10.23,6.5C1376.92,758.85,1376.63,820.57,1376.71,840Z"/><path class="cls-82" d="M1477,690.28c-3.67,9.39-13.21,18.07-15.42,16.75-4.25-2.54,5.11-10.17,6.4-14.77s-4.74-3-11.21-8.54c-3.78-3.23-4.6-7.92-2.81-11,1.25-2.19,3.84-3.56,7.62-3C1478.79,672.29,1480.43,681.6,1477,690.28Z"/><path class="cls-35" d="M1477,690.28c-3.67,9.39-13.21,18.07-15.42,16.75-4.25-2.54,5.11-10.17,6.4-14.77s-4.74-3-11.21-8.54c-3.78-3.23-4.6-7.92-2.81-11,9.38,4.39,16.6,6.13,21.65,11.64C1477.69,686.62,1477.71,688.71,1477,690.28Z"/><path class="cls-83" d="M1742.41,1152.71a465.67,465.67,0,0,1-45,15.28c10.5-37.54,9.68-87.33,9.68-87.33-22,4.58-82.23,2.26-82.23,2.26-1.62-18.23-19.71-121.52-19.71-121.52,2.73,36.73-6.75,118.12-6.75,118.12s-41.4,8-65.62,7.68l1.23-11v0c15-.22,39.47-1.34,50.59-6.24,0,0,21.86-111.78,13.8-176,0,0,12.65,60.7,23.58,100.26a451,451,0,0,1,13.81,72.35s72.19-7,117.11-15.26C1753.24,1079,1742.41,1152.71,1742.41,1152.71Z"/><path class="cls-9" d="M1537.36,347.72s19.17,4.69,46.08-7.64c0,0-12.85,26.4-27.9,25.29S1537.36,347.72,1537.36,347.72Z"/><polygon class="cls-84" points="1427.69 720.71 1462.83 687.63 1465.86 688.34 1429.26 722.66 1427.69 720.71"/><polygon class="cls-85" points="1462.83 687.63 1462.25 684.58 1424.33 718.3 1427.69 720.71 1462.83 687.63"/><path class="cls-86" d="M1467,692h0c-1.76.33-4.18-.41-6.92-2.87s-3-6.19-1.22-7.91c1.36-1.35,3.93-1.5,7.32,1C1471.38,686.19,1470.6,691.35,1467,692Z"/><path class="cls-87" d="M1464.92,685.24c1.86,2,2.44,4.43,1.3,5.51l-62.54,58.73c-1.15,1.08-3.58.35-5.45-1.62h0c-1.87-2-2.45-4.44-1.31-5.51l62.56-58.73c1.14-1.08,3.57-.35,5.44,1.62Z"/><path class="cls-88" d="M1403.68,749.47a3.48,3.48,0,0,1-4.61.34c-2.49-1.6-4.09-5.55-2.15-7.46,2.17-2.13,5.4-.8,7,1.48C1405.16,745.55,1405.46,747.8,1403.68,749.47Z"/><path class="cls-89" d="M1400.49,740.73l20.84-19.41s4.14,2.24,4.93,4.25l-20.8,20.33A5.22,5.22,0,0,0,1400.49,740.73Z"/><path class="cls-86" d="M1421.33,721.32l3-3s4,1.82,4.93,4.36l-3,2.91A10.36,10.36,0,0,0,1421.33,721.32Z"/><path class="cls-90" d="M1467,692c2.79-1,2.63-5-.9-8.33s-6.17-3.15-7.26-2.45c1.36-1.35,3.93-1.5,7.32,1C1471.38,686.19,1470.6,691.35,1467,692Z"/><path class="cls-91" d="M1399.67,740.79a8.84,8.84,0,0,1,3.15.58l41.9-40.4-1.64-.93Z"/><polygon class="cls-91" points="1460.45 684 1454.18 689.67 1456.6 689.67 1462.25 684.58 1460.45 684"/><path class="cls-92" d="M1403.68,749.47a3.48,3.48,0,0,1-4.61.34c2.59-1.43,4.85-4.49,4.86-6C1405.16,745.55,1405.46,747.8,1403.68,749.47Z"/><path class="cls-93" d="M1401.92,748.18s-4.65,2.92-6.74,2.6l-16,14.9-.65.6-.54-.57,16.45-15.3c-1.08-1.24,1.7-4.32,3.34-5.78.91-.8,2.22.64,3.13,1.92A14.44,14.44,0,0,1,1401.92,748.18Z"/><path class="cls-94" d="M1401.92,748.18s-4.65,2.92-6.74,2.6l-16,14.9,15.57-15.16,6.16-4A14.44,14.44,0,0,1,1401.92,748.18Z"/><path class="cls-95" d="M1692.09,911.66s-10.92,12.44-18.39,14.7-22.43-9-22.43-9l-4.92-24.13-1.3-6.41s36.18-8.46,39.33-12.42l1.65,8Z"/><path class="cls-67" d="M1686,882.34c-11.83,4.75-31.65,9.16-39.68,10.85l-1.3-6.41s36.18-8.46,39.33-12.42Z"/><path class="cls-96" d="M1717.39,630.2c-12.3,44.65-87.73,148.45-151.8,179.18-53.6,25.72-121.78,38.56-121.78,38.56s-10.85,13.13-35.41,17.15c-14.62,2.45-27.71,3.19-28.54-.29a.62.62,0,0,1,0-.29c.08-3.31,16.11-6.38,16.11-6.38-.37,0-.7,0-1,.09s-.86.08-1.28.08c-15.7,1.16-18.51-.45-18.35-3.31a1.79,1.79,0,0,1,0-.46c.37-2.32,10.23-4.39,16.2-5.43-1.33.17-2.61.29-3.89.42l-1.95.12c-8.91.46-15.66-1-15.08-3.56,1.24-5.51,21.54-6.38,21.54-6.38-.66,0-1.33,0-1.95,0-1.78,0-3.43-.12-4.93-.25-11.92-.87-15.86-3.48-14.33-5.63.87-1.33,3.81-2.53,8.25-3,13.74-1.57,29.94-7.87,35.16-10l1.7-.7c-13.38-2.86-32-19.06-29.49-24.94a5.65,5.65,0,0,1,.37-.74c2.7-4.1,8.49,5.67,26.47,9.86,18.93,4.38,30.44,10.06,30.44,10.06,16-2.32,65.61-17,120.49-74.1s76.22-145.67,80.77-144.47c22.37,5.84,38.85,13,50.37,19.3C1710.8,623.41,1717.39,630.2,1717.39,630.2Z"/><path class="cls-97" d="M1465.85,713.72a1.42,1.42,0,0,1-.91.53c-8.51,2.16-51.85-42-43.26-50.51a3.87,3.87,0,0,1,.87-.65C1433.84,656.58,1471.25,707.3,1465.85,713.72Z"/><path class="cls-35" d="M1464.94,714.25c-8.51,2.16-51.85-42-43.26-50.51a3.87,3.87,0,0,1,.87-.65C1430.33,676.07,1449.35,704.18,1464.94,714.25Z"/><path class="cls-98" d="M1456.46,709.34l-.71.88-2.16,2.55-7.51-3.11,3.29-3.09c-3.24-5.2-6.46-6.62-7.1-6.88l-3.67,3.53-5.16-4.77,3-3,.25-.25,6.6,2.74a7.62,7.62,0,0,1,6.64,3.68l1.66,3.25Z"/><path class="cls-99" d="M1456.46,709.34l-.71.88-4.91-4.7a14.53,14.53,0,0,0-2.95-4.59c-3.17-3.47-6.62-2.24-6.62-2.24l-5.46-2.63.88-.89,6.6,2.74a7.62,7.62,0,0,1,6.64,3.68l1.66,3.25Z"/><path class="cls-35" d="M1717.39,630.19c-12.29,44.65-87.72,148.46-151.8,179.21-53.6,25.72-121.77,38.53-121.77,38.53s-10.86,13.13-35.4,17.18c-14.64,2.41-27.72,3.17-28.58-.29a1.65,1.65,0,0,1,0-.3c8.37-.48,23.52-1.63,33.57-4,14.49-3.46,32.33-22.08,32.33-22.08,42.07-6.93,103.21-21.58,162.32-79.66,52.31-51.38,80.19-119.65,87.41-143.73C1710.81,623.4,1717.39,630.19,1717.39,630.19Z"/><path class="cls-37" d="M1325.23,642.65c-.59-3.45.91-20.69,12.17-22.25,14.72-2,19.2,17.44,18.7,19.35-.75,2.8-6.73,6.4-15.56,7.2C1334,647.55,1325.52,644.38,1325.23,642.65Z"/><path class="cls-9" d="M1356.1,639.75a39.9,39.9,0,0,1-10.67,3.66c-1.13.24-2.34.43-3.61.58a40.79,40.79,0,0,1-7.76.15,47,47,0,0,1-8.83-1.49c-.19-.64,3.59-14,14.43-14.64S1356.1,639.75,1356.1,639.75Z"/><path class="cls-44" d="M1325.23,642.65c-1.22-2.63,1.65-16.94,13.88-18.09,15.43-1.45,17,15.19,17,15.19s-5.39-11.36-16.64-10.62C1328.57,629.84,1325.23,642.65,1325.23,642.65Z"/><path class="cls-100" d="M1273.59,639.81a7.24,7.24,0,0,1-2.52,4.69c-1.75,0-3.74,0-6-.19a49.92,49.92,0,0,1-5.63-.76,7.19,7.19,0,0,1-1.72-5.44,8,8,0,0,1,15.82,1.7Z"/><path class="cls-100" d="M1347.23,638a7.07,7.07,0,0,1-1.8,5.37c-1.13.24-2.34.43-3.61.58a40.79,40.79,0,0,1-7.76.15,7.15,7.15,0,0,1-2.37-4.65,7.82,7.82,0,0,1,15.54-1.45Z"/><path class="cls-101" d="M1310.86,663.93c-.71,3.83-2.48,6.58-5.39,7.1-4.77.83-7-3.3-6.82-8.28a18.25,18.25,0,0,1,1.55-6.79c3.15-7.06,1.15-25.75,1.44-25.75,0,0,2,4.55,6.58,15.16C1310.87,651.5,1311.84,658.7,1310.86,663.93Z"/><path class="cls-37" d="M1304.48,666.86a8.61,8.61,0,0,0,6.38-2.93c-.71,3.83-2.48,6.58-5.39,7.1-4.77.83-7-3.3-6.82-8.28A5.74,5.74,0,0,0,1304.48,666.86Z"/><path class="cls-35" d="M1414.32,820.77l1.7-.7c-13.38-2.86-32-19.06-29.49-24.94a5.65,5.65,0,0,1,.37-.74c3,4.93,10.48,14.16,20.59,18.84C1419.37,818.74,1421.53,819.53,1414.32,820.77Z"/><path class="cls-35" d="M1414.57,832.74c-1.08.87-12.76,5.06-29.33,6.67-11.92-.87-15.86-3.48-14.33-5.63,4.35,1.66,12.22,3.73,23.12,2.73C1407.49,835.31,1415.77,831.71,1414.57,832.74Z"/><path class="cls-35" d="M1413.16,840.82a104,104,0,0,1-27.5,8.82c-8.91.46-15.66-1-15.08-3.56a57.15,57.15,0,0,0,18.6.62C1399.7,845.42,1410.1,842.27,1413.16,840.82Z"/><path class="cls-35" d="M1393.61,858.3c-15.7,1.16-18.51-.45-18.35-3.31,4.1.86,14,.78,23.82-.46,11.35-1.45,16.15-4.18,17-4.18C1416.77,850.35,1407,854.86,1393.61,858.3Z"/></g><rect class="cls-102" x="-41.71" y="-58.93" width="1984.17" height="1176.04"/></g></g></g></svg>