<svg id="Camada_1" data-name="Camada 1" xmlns="http://www.w3.org/2000/svg" xmlns:xlink="http://www.w3.org/1999/xlink" viewBox="0 0 773.54 1115.5"><defs><style>.cls-1,.cls-3,.cls-4{fill:none;}.cls-2{clip-path:url(#clip-path);}.cls-3{stroke:#2db6bc;stroke-width:11px;}.cls-3,.cls-4{stroke-miterlimit:10;}.cls-4{stroke:#fabc43;stroke-width:14px;}</style><clipPath id="clip-path"><rect class="cls-1" x="-6.46" y="-4.5" width="1941" height="1120"/></clipPath></defs><g class="cls-2"><path class="cls-3" d="M594,64C542.88-90.82,397.1-202.5,225.21-202.5c-159.6,0-296.72,96.3-356.37,234A386.85,386.85,0,0,0-395.23-72.16c-214.44,0-388.27,173.83-388.27,388.27,0,263.3,255,396,333.57,432.65,202.5,94.49,103.88,274,96.65,283.18C319.05,1031.94,697.05,420.39,594,64Z"/><path class="cls-4" d="M674,120C622.88-34.82,477.1-146.5,305.21-146.5c-159.6,0-296.72,96.3-356.37,234A386.85,386.85,0,0,0-315.23-16.16c-214.44,0-388.27,173.83-388.27,388.27,0,263.3,255,396,333.57,432.65,202.5,94.49,103.88,274,96.65,283.18C399.05,1087.94,777.05,476.39,674,120Z"/><rect class="cls-1" x="14.54" y="19.5" width="1920" height="1080"/></g></svg>