<svg xmlns="http://www.w3.org/2000/svg" xmlns:xlink="http://www.w3.org/1999/xlink" viewBox="0 0 948.71 840.53"><defs><style>.cls-1,.cls-3{fill:none;}.cls-2{isolation:isolate;}.cls-3{stroke:#e6e6e6;stroke-miterlimit:10;stroke-width:5px;}.cls-4{clip-path:url(#clip-path);}.cls-5{opacity:0.25;}.cls-6{fill:url(#linear-gradient);}.cls-17,.cls-7{fill:#b3b3b3;}.cls-8{fill:#fff9de;opacity:0.8;}.cls-9{fill:#ccc;}.cls-10{fill:#e5d4cf;}.cls-11{fill:#f7e8e4;}.cls-12{fill:#ccbdb8;}.cls-13{fill:#ddd5d3;}.cls-14{fill:#efdbd4;opacity:0.6;mix-blend-mode:screen;}.cls-15{fill:#b5b5ac;}.cls-16{fill:#d3bbb4;opacity:0.5;}.cls-17{opacity:0.2;mix-blend-mode:multiply;}</style><clipPath id="clip-path"><rect class="cls-1" x="269.21" y="-1378.29" width="1920" height="1080"/></clipPath><linearGradient id="linear-gradient" x1="1178.5" y1="477.57" x2="1238.36" y2="-1592.39" gradientUnits="userSpaceOnUse"><stop offset="0" stop-color="#fdf4c9"/><stop offset="0.99" stop-color="#f2dcb9"/></linearGradient></defs><g class="cls-2"><g id="Camada_1" data-name="Camada 1"><path class="cls-3" d="M934.84,182.86C900.26,78.09,801.59,2.5,685.24,2.5c-108,0-200.83,65.18-241.2,158.38A261.81,261.81,0,0,0,265.3,90.72C120.16,90.72,2.5,208.38,2.5,353.52c0,178.21,172.61,268,225.78,292.84C365.34,710.31,298.59,831.85,293.69,838,748.76,838,1004.61,424.1,934.84,182.86Z"/><g class="cls-4"><g class="cls-5"><rect class="cls-6" x="172.1" y="-1564.29" width="2071" height="2071"/><rect class="cls-7" x="172.1" y="146.36" width="2071" height="360.35"/><rect class="cls-8" x="172.1" y="-425.23" width="2071" height="542.6"/><rect class="cls-9" x="172.1" y="117.36" width="2071" height="37.28"/><rect class="cls-10" x="298.63" y="-439.03" width="22.77" height="622.34"/><rect class="cls-10" x="848.88" y="-439.03" width="22.76" height="622.34"/><rect class="cls-11" x="321.4" y="-203.76" width="527.47" height="368.1"/><rect class="cls-12" x="321.4" y="164.34" width="527.47" height="18.97"/><rect class="cls-13" x="268.28" y="183.31" width="633.73" height="41.74"/><polygon class="cls-14" points="338.19 15.32 331.52 52.78 834.22 74.42 837.54 10.33 338.19 15.32"/><rect class="cls-15" x="522.52" y="31.52" width="125.23" height="15.18"/><polygon class="cls-16" points="902 183.31 902 225.05 676.95 225.05 711.55 183.31 902 183.31"/><path class="cls-17" d="M805,253.94c20.62,41.35,366.86,64.56,740.43,64.56s610.4-56.93,610.4-56.93-203.62-48.93-665.69-44.75S805,253.94,805,253.94Z"/></g></g></g></g></svg>