<svg id="Camada_1" data-name="Camada 1" xmlns="http://www.w3.org/2000/svg" viewBox="0 0 510.46 177.47"><defs><style>.cls-1{fill:#fff;}</style></defs><path class="cls-1" d="M447.48,82.38a8.1,8.1,0,0,0-6.4,2.83c-1.65,1.89-2.47,4.84-2.47,8.83s.82,7,2.47,8.95a8,8,0,0,0,6.4,2.88,8.16,8.16,0,0,0,6.45-2.88c1.67-1.91,2.5-4.9,2.5-8.95s-.83-6.94-2.5-8.83A8.24,8.24,0,0,0,447.48,82.38Z"/><path class="cls-1" d="M508.05,38.31A55.84,55.84,0,0,0,403.8,33.64,55.82,55.82,0,0,0,310,74.56c0,37.85,36.67,56.93,48,62.2,29.11,13.58,14.93,39.4,13.89,40.71C468.52,177.47,522.87,89.55,508.05,38.31ZM435.33,64.48l5.34-9.77c1.58-3,3.85-4.43,6.81-4.43s5.31,1.47,6.9,4.43l5.25,9.77a3.26,3.26,0,0,1,.37,2.75,3.48,3.48,0,0,1-1.6,1.93,3.65,3.65,0,0,1-2.46.45,3.21,3.21,0,0,1-2.22-1.6l-6.24-9.44L441.24,68a3.21,3.21,0,0,1-2.22,1.6,3.65,3.65,0,0,1-2.46-.45,3.48,3.48,0,0,1-1.6-1.93A3.26,3.26,0,0,1,435.33,64.48Zm-44.19,44.18q0,6.32-5.75,6.32t-5.83-6.32v-.5a10.33,10.33,0,0,1-4.15,5.1,12.85,12.85,0,0,1-7.1,1.88,17.53,17.53,0,0,1-8-1.72,14,14,0,0,1-5.46-4.68,11.5,11.5,0,0,1-2-6.65,10.23,10.23,0,0,1,2.3-7c1.53-1.75,4-3,7.47-3.74a67.93,67.93,0,0,1,13.72-1.11h2.95V88.87c0-2.41-.54-4.12-1.64-5.13s-2.95-1.52-5.58-1.52a24.91,24.91,0,0,0-4.85.53,32.69,32.69,0,0,0-5.66,1.77,4.31,4.31,0,0,1-3.86.12A4.11,4.11,0,0,1,355.67,82a5.22,5.22,0,0,1,.28-3.57A5,5,0,0,1,359,75.81a41,41,0,0,1,7.27-2.09,35.52,35.52,0,0,1,6.28-.62q9.36,0,14,4.23t4.6,13.1Zm27.75,6.16L417,115a18.28,18.28,0,0,1-2.05.12q-14.54,0-14.53-16.17v-37q0-6.33,6.24-6.33t6.15,6.33V98.48a7.24,7.24,0,0,0,1.44,5,4.87,4.87,0,0,0,3.82,1.6,8.75,8.75,0,0,0,1.27-.08,9.91,9.91,0,0,1,1.19-.08,1.84,1.84,0,0,1,1.85.82,8.34,8.34,0,0,1,.53,3.7Q422.91,114.15,418.89,114.82Zm47.35-9.57a18.51,18.51,0,0,1-7.47,7.31,26,26,0,0,1-22.58,0,18.23,18.23,0,0,1-7.43-7.31A22.71,22.71,0,0,1,426.13,94a22.49,22.49,0,0,1,2.63-11.12,18,18,0,0,1,7.43-7.27,26.27,26.27,0,0,1,22.58,0,18.23,18.23,0,0,1,7.47,7.27A22.19,22.19,0,0,1,468.91,94,22.4,22.4,0,0,1,466.24,105.25Z"/><path class="cls-1" d="M367.49,97.78a3.88,3.88,0,0,0-2.63,3.82,4.92,4.92,0,0,0,1.6,3.77,6.6,6.6,0,0,0,4.64,1.48,7.92,7.92,0,0,0,5.83-2.38,8.33,8.33,0,0,0,2.38-6.16V96.67h-2.87Q370.11,96.67,367.49,97.78Z"/><path class="cls-1" d="M147.76,84q-6.25,0-6.25-6.34V48.48q0-6.25,6.09-6.26t6.09,6.26v.24a13.09,13.09,0,0,1,5-4.9A15,15,0,0,1,166,42.06,13.39,13.39,0,0,1,173.32,44a11.68,11.68,0,0,1,4.57,5.76,13.66,13.66,0,0,1,5.48-5.64,15.94,15.94,0,0,1,7.94-2q6.91,0,10.29,4.15T205,59V77.7a6.43,6.43,0,0,1-1.61,4.69A6.08,6.08,0,0,1,198.8,84q-6.26,0-6.25-6.34V59.42c0-2.68-.43-4.65-1.28-5.88S189,51.69,187,51.69a6.67,6.67,0,0,0-5.52,2.47c-1.31,1.64-2,4-2,7V77.7q0,6.35-6.18,6.34a6.24,6.24,0,0,1-4.61-1.65A6.36,6.36,0,0,1,167,77.7V59.42c0-2.68-.44-4.65-1.32-5.88a4.88,4.88,0,0,0-4.28-1.85,6.67,6.67,0,0,0-5.52,2.47c-1.31,1.64-2,4-2,7V77.7Q153.94,84,147.76,84Z"/><path class="cls-1" d="M233.44,84.2a27,27,0,0,1-12.31-2.59,18.61,18.61,0,0,1-7.9-7.32,21.79,21.79,0,0,1-2.76-11.16,21.9,21.9,0,0,1,2.68-11,19.3,19.3,0,0,1,7.32-7.41,21.2,21.2,0,0,1,10.75-2.67q8.81,0,14,5.55t5.19,15q0,3.12-3.87,3.12H222.32q.66,4.78,3.5,7c1.9,1.46,4.52,2.18,7.87,2.18a25.68,25.68,0,0,0,4.48-.45A17.65,17.65,0,0,0,243,72.84a4.89,4.89,0,0,1,4-.45,4,4,0,0,1,2.27,2.35,4.88,4.88,0,0,1,0,3.41,5.48,5.48,0,0,1-2.76,2.93,24.56,24.56,0,0,1-6.38,2.34A30.89,30.89,0,0,1,233.44,84.2Zm-1.73-33.91a8.69,8.69,0,0,0-6.38,2.39,11.12,11.12,0,0,0-3,6.66h17.79Q239.62,50.3,231.71,50.29Z"/><path class="cls-1" d="M270.46,84.2q-7.74,0-11.4-4.28t-3.67-12.84V48.48q0-6.25,6.18-6.26t6.26,6.26V67.41q0,7.17,6.17,7.16a7.44,7.44,0,0,0,5.8-2.51,9.51,9.51,0,0,0,2.27-6.63v-17q0-6.25,6.17-6.26t6.26,6.26V77.7q0,6.35-6,6.34A5.94,5.94,0,0,1,284,82.39a6.42,6.42,0,0,1-1.56-4.61Q278.37,84.21,270.46,84.2Z"/><path class="cls-1" d="M6.26,170.83Q0,170.83,0,164.49v-44q0-6.26,6.09-6.26t6.18,6.26v.25a12.41,12.41,0,0,1,5.1-4.86A15.75,15.75,0,0,1,25,114a16.85,16.85,0,0,1,9.26,2.55,17,17,0,0,1,6.21,7.24A26,26,0,0,1,42.64,135a26.27,26.27,0,0,1-2.22,11.24,17.22,17.22,0,0,1-6.21,7.32,16.64,16.64,0,0,1-9.26,2.6,15.79,15.79,0,0,1-7.37-1.73,12.93,12.93,0,0,1-5.15-4.61v14.65Q12.43,170.83,6.26,170.83Zm15-24A8.05,8.05,0,0,0,27.66,144q2.47-2.88,2.47-9t-2.47-8.85a8.11,8.11,0,0,0-6.42-2.84,8.19,8.19,0,0,0-6.5,2.84Q12.27,129,12.27,135t2.47,9A8.13,8.13,0,0,0,21.24,146.87Z"/><path class="cls-1" d="M54.56,156q-6.42,0-6.43-6.34V120.45q0-6.26,6.1-6.26t6.09,6.26v1.48q3-7.32,12.27-7.9a3.69,3.69,0,0,1,3.17,1A5.94,5.94,0,0,1,77,119a5.66,5.66,0,0,1-1,4,5.77,5.77,0,0,1-4,1.81L70,125q-9.21.9-9.22,9.38v15.31Q60.81,156,54.56,156Z"/><path class="cls-1" d="M88.31,107.44A7.8,7.8,0,0,1,83,105.83a5.68,5.68,0,0,1-1.85-4.56A5.79,5.79,0,0,1,83,96.62,7.86,7.86,0,0,1,88.31,95q7.08,0,7.08,6.26T88.31,107.44Zm0,48.49a6,6,0,0,1-4.65-1.77,7.15,7.15,0,0,1-1.61-5V121q0-6.83,6.26-6.83A5.86,5.86,0,0,1,92.88,116a7.28,7.28,0,0,1,1.6,5.06v28.16a7.29,7.29,0,0,1-1.56,5A5.82,5.82,0,0,1,88.31,155.93Z"/><path class="cls-1" d="M108.45,156q-6.26,0-6.25-6.34V120.45q0-6.26,6.09-6.26t6.09,6.26v.25a13,13,0,0,1,5-4.9,14.86,14.86,0,0,1,7.37-1.77,13.39,13.39,0,0,1,7.28,1.89,11.68,11.68,0,0,1,4.57,5.76,13.66,13.66,0,0,1,5.48-5.64,15.94,15.94,0,0,1,7.94-2q6.92,0,10.29,4.15c2.25,2.78,3.38,7,3.38,12.81v18.68a6.47,6.47,0,0,1-1.61,4.7,6.11,6.11,0,0,1-4.57,1.64q-6.26,0-6.25-6.34V131.4q0-4-1.28-5.89t-4.32-1.85a6.67,6.67,0,0,0-5.52,2.47q-2,2.48-2,7v16.54q0,6.35-6.18,6.34a6.27,6.27,0,0,1-4.61-1.64,6.4,6.4,0,0,1-1.64-4.7V131.4q0-4-1.32-5.89a4.89,4.89,0,0,0-4.28-1.85,6.67,6.67,0,0,0-5.52,2.47q-2,2.48-2,7v16.54Q114.63,156,108.45,156Z"/><path class="cls-1" d="M194.13,156.18a27.08,27.08,0,0,1-12.31-2.6,18.61,18.61,0,0,1-7.9-7.32,23.91,23.91,0,0,1-.08-22.15,19.44,19.44,0,0,1,7.32-7.41A21.2,21.2,0,0,1,191.91,114q8.81,0,14,5.55t5.19,15c0,2.08-1.29,3.13-3.87,3.13H183q.64,4.77,3.5,6.95c1.89,1.46,4.51,2.18,7.86,2.18a25.68,25.68,0,0,0,4.48-.45,18,18,0,0,0,4.82-1.6,4.86,4.86,0,0,1,4-.46,4,4,0,0,1,2.27,2.35,4.91,4.91,0,0,1,0,3.42,5.42,5.42,0,0,1-2.76,2.92,25,25,0,0,1-6.38,2.35A30.82,30.82,0,0,1,194.13,156.18Zm-1.73-33.92a8.73,8.73,0,0,0-6.38,2.39,11.06,11.06,0,0,0-3,6.67H200.8Q200.31,122.26,192.4,122.26Z"/><path class="cls-1" d="M224.59,107.44a7.8,7.8,0,0,1-5.31-1.61,5.68,5.68,0,0,1-1.85-4.56,5.79,5.79,0,0,1,1.85-4.65A7.86,7.86,0,0,1,224.59,95q7.08,0,7.08,6.26T224.59,107.44Zm0,48.49a6,6,0,0,1-4.65-1.77,7.15,7.15,0,0,1-1.61-5V121q0-6.83,6.26-6.83a5.86,5.86,0,0,1,4.57,1.77,7.28,7.28,0,0,1,1.6,5.06v28.16a7.29,7.29,0,0,1-1.56,5A5.82,5.82,0,0,1,224.59,155.93Z"/><path class="cls-1" d="M244.73,156q-6.42,0-6.42-6.34V120.45q0-6.26,6.09-6.26t6.1,6.26v1.48q3-7.32,12.26-7.9a3.68,3.68,0,0,1,3.17,1,5.94,5.94,0,0,1,1.2,3.91,5.66,5.66,0,0,1-1,4,5.77,5.77,0,0,1-4,1.81l-1.89.17q-9.22.9-9.22,9.38v15.31Q251,156,244.73,156Z"/><path class="cls-1" d="M288.84,156.18a23.51,23.51,0,0,1-11.32-2.6,18.24,18.24,0,0,1-7.45-7.32,25.08,25.08,0,0,1,0-22.4,18,18,0,0,1,7.45-7.28,26.4,26.4,0,0,1,22.64,0,18.3,18.3,0,0,1,7.49,7.28,24.83,24.83,0,0,1,0,22.4,18.58,18.58,0,0,1-7.49,7.32A23.56,23.56,0,0,1,288.84,156.18Zm0-9.31A8.19,8.19,0,0,0,295.3,144q2.51-2.88,2.51-9t-2.51-8.85a8.25,8.25,0,0,0-6.46-2.84,8.13,8.13,0,0,0-6.43,2.84c-1.64,1.89-2.47,4.84-2.47,8.85s.83,7,2.47,9A8.07,8.07,0,0,0,288.84,146.87Z"/></svg>